<svg version="1.1" xmlns="http://www.w3.org/2000/svg" xmlns:xlink="http://www.w3.org/1999/xlink" width="241.19038" height="349.4837" viewBox="0,0,241.19038,349.4837"><g transform="translate(-105.06318,-6.70571)"><g data-paper-data="{&quot;isPaintingLayer&quot;:true}" fill-rule="nonzero" stroke-linecap="butt" stroke-linejoin="miter" stroke-miterlimit="10" stroke-dasharray="" stroke-dashoffset="0" style="mix-blend-mode: normal"><path d="M297.75001,89c0,44.32085 -29.21342,80.25 -65.25,80.25c-36.03658,0 -65.25,-35.92915 -65.25,-80.25c0,-44.32085 29.21342,-80.25 65.25,-80.25c36.03658,0 65.25,35.92915 65.25,80.25z" fill="#ffffff" stroke="#000000" stroke-width="3"/><path d="M193.75001,45.25c0,-1.38071 1.11929,-2.5 2.5,-2.5c1.38071,0 2.5,1.11929 2.5,2.5c0,1.38071 -1.11929,2.5 -2.5,2.5c-1.38071,0 -2.5,-1.11929 -2.5,-2.5z" fill="#000000" stroke="none" stroke-width="0.5"/><path d="M259.75001,44.75c0,-1.38071 1.11929,-2.5 2.5,-2.5c1.38071,0 2.5,1.11929 2.5,2.5c0,1.38071 -1.11929,2.5 -2.5,2.5c-1.38071,0 -2.5,-1.11929 -2.5,-2.5z" fill="#000000" stroke="none" stroke-width="0.5"/><path d="M276.66668,111.5c0,2.5 -2.5,2.5 -2.5,2.5h-0.66667c-7.79656,0 -15.56754,-0.67985 -23.33334,-0.66666c-12.78797,0 -25.54196,1 -38.33333,1c-6.96256,0 -14.70863,0.65782 -21.45724,-1.46163c-1.82063,-0.57178 -3.43989,-1.65623 -5.19422,-2.40718c0,0 -2.29787,-0.98479 -1.31306,-3.28266c0.9848,-2.29787 3.28266,-1.31307 3.28266,-1.31307c1.62673,0.69796 3.11884,1.72313 4.80577,2.25949c6.17418,1.96305 13.50597,1.20504 19.8761,1.20504c12.79105,0 25.54516,-1 38.33333,-1c7.77104,0.0119 15.53356,0.66666 23.33334,0.66666h0.66667c0,0 2.5,0 2.5,2.5z" fill="#000000" stroke="none" stroke-width="0.5"/><path d="M173.67787,54.85413c0.00516,-1.04102 -0.41286,-2.16206 0.02892,-3.0945c0.06431,-0.13573 0.13302,-0.26873 0.20562,-0.39928l-0.08657,-0.03246l0.97951,-2.61202c0.34031,-0.97631 1.269,-1.67684 2.36131,-1.67684c0.21407,0 0.42186,0.0269 0.62016,0.07752c1.10281,-3.95533 3.58664,-6.89393 5.47529,-10.69191c1.90581,-3.83248 4.16126,-6.44341 7.05849,-9.57145c2.47728,-2.67463 4.16458,-6.19777 6.74496,-8.74858c3.69964,-3.65724 8.72612,-4.72362 13.54439,-5.92024c0.57873,-0.58159 1.34772,-0.75247 1.34772,-0.75247c7.32226,-1.61851 14.61326,-2.90511 22.01119,-3.86927c0.42303,-0.3282 0.95426,-0.52359 1.53114,-0.52359h2.77672c0.42834,-0.04831 0.85711,-0.09556 1.28636,-0.14176c0.242,-0.04235 0.48156,-0.07725 0.70912,-0.07531c0.36739,-0.0385 0.73514,-0.07622 1.10326,-0.11317l0.12454,0.05556v-0.05865h2.66666c1.38071,0 2.5,1.11929 2.5,2.5c0,0.21842 -0.02801,0.43029 -0.08064,0.63223c1.5024,0.35759 3.72154,0.83738 4.12296,0.92729c9.00728,2.01743 15.56779,8.01669 21.8921,14.33937c4.41827,4.41714 8.65131,9.39319 11.4683,14.98306c0.71272,1.44194 1.32625,2.94833 1.8583,4.49977c0.45857,-0.53947 1.14213,-0.88173 1.90564,-0.88173c1.09231,0 2.02101,0.70054 2.36132,1.67684l0.9795,2.61201l-0.09845,0.03692l0.19224,0.27285c0.30894,2.94939 0.28945,5.46665 0.15681,8.25867c0.20524,1.57288 0.04207,3.24015 0.23708,4.8207l-0.06923,0.15534h0.07407v2.66667c0,1.16096 -0.79134,2.13708 -1.86405,2.41839l0.17809,1.60276c0.01274,0.10227 0.0193,0.20645 0.0193,0.31217c0,1.38071 -1.11929,2.5 -2.5,2.5c-1.18975,0 -2.1854,-0.8311 -2.43804,-1.94439l-0.65398,-2.61593l0.04257,-0.01064c-0.02646,-0.05084 -0.0524,-0.10199 -0.07779,-0.15349c-0.94476,-1.91644 -0.74079,-4.78046 -0.44032,-7.47955c-0.72025,-5.72875 -1.85679,-11.62209 -4.33517,-16.51129c-5.01585,-10.12426 -15.15215,-20.11687 -25.21165,-25.21348c-1.0387,-0.52625 -2.18494,-0.97258 -3.38534,-1.36596c0.25334,0.14745 0.50727,0.35965 0.75361,0.65526c1.60046,1.92056 -0.32009,3.52102 -0.32009,3.52102l-1.85412,1.53505c-1.45991,1.67465 -2.73479,3.50457 -4.19105,5.1824c-2.78841,3.21267 -6.44339,5.59406 -8.83254,9.11747c-0.89192,1.31536 -4.189,7.1953 -5.88605,7.4054c-1.72723,0.21384 -5.60578,-5.23337 -6.42881,-6.23295c-4.49161,-5.45519 -8.30342,-11.00973 -14.39956,-14.80792c0,0 -2.11999,-1.325 -0.795,-3.44499c1.325,-2.11999 3.445,-0.795 3.445,-0.795c5.76039,3.61052 9.50405,8.30901 13.64316,13.57845c0.75923,0.96656 2.99266,3.3878 4.08767,4.81853c0.57203,-1.20952 1.45947,-2.26095 2.22141,-3.3658c2.55498,-3.70484 6.2382,-6.16391 9.16746,-9.54919c1.54396,-1.78432 2.91908,-3.71091 4.47562,-5.48426l2.14588,-1.79829c0,0 0.83482,-0.69568 1.86232,-0.61932c-2.86464,-0.86288 -5.95334,-1.47252 -8.58239,-2.17478c-0.80146,-0.21409 -1.72311,0.06834 -2.47185,-0.28882c-0.04631,-0.0221 -0.09251,-0.04441 -0.13859,-0.06694l-0.0087,0.0348l-2.65582,-0.66395c-7.70171,0.94338 -15.26703,2.25281 -22.86535,3.9389c-0.55573,0.54745 -1.26615,0.72505 -1.26615,0.72505c-3.9041,0.97571 -8.50763,1.63094 -11.50524,4.67574c-2.48952,2.52872 -4.16675,5.95301 -6.58838,8.58475c-2.60395,2.82988 -4.55092,4.99841 -6.27484,8.42855c-1.93324,3.84663 -4.98065,6.9245 -5.44123,11.31229c-0.43267,1.95435 -0.88598,3.90438 -1.3713,5.84633l-0.65398,2.61593c-0.20582,0.90695 -0.90472,1.62661 -1.79996,1.86223c-0.04049,0.18834 -0.0867,0.37585 -0.13807,0.56251c-0.00002,0.00659 -0.00002,0.01314 -0.00001,0.01966v0.60417l0.31402,0.03925l-0.32922,2.63376c-0.13791,1.25028 -1.19778,2.22282 -2.4848,2.22282c-1.38071,0 -2.5,-1.11929 -2.5,-2.5v-3c0.00175,-1.14393 0.07696,-2.28574 0.16304,-3.42717l-0.13792,-0.88594c0,0 -0.12999,-0.90992 0.3194,-1.70511z" fill="#000000" stroke="none" stroke-width="0.5"/><path d="M224.75001,347c1.57009,2.38745 4.05594,4.59239 0.71804,7.81613c-1.24116,1.19871 -3.32936,0.95778 -5.04082,1.17758c-3.39974,0.43662 -7.23453,0.00629 -10.67722,0.00629c-10.47096,0 -21.47712,-0.53216 -31.60263,-3.07372c-2.14775,-0.53909 -4.23772,-1.29932 -6.30368,-2.09635c-2.37117,-0.91477 -5.50465,-0.85433 -6.82976,-3.7119c-0.61851,-1.3338 -0.09042,-2.93907 -0.13564,-4.40861c3.37082,-4.8795 8.03614,-8.71533 11.29709,-13.6044c1.78537,-2.67676 4.51167,-6.53963 8.10828,-7.06115c4.137,-0.59987 7.45475,2.37697 9.18079,5.79586c0.40534,0.80287 0.20473,1.86998 0.73566,2.59594c1.03715,1.41815 3.2183,1.49399 4.58843,2.59381c1.66932,1.34 3.05974,2.94717 4.3273,4.65144c0.13739,-4.41871 0.62928,-8.88925 0.6985,-13.23415c0.26386,-16.34773 0.18394,-32.49754 -0.60866,-48.84497c-0.47358,-9.76763 -3.03176,-19.19346 -1.42166,-29.01281c0,0 0.20539,-1.23234 1.19695,-1.8095c-0.65148,-6.39852 -0.93889,-12.80085 -1.6438,-19.2101c-0.00278,-10.29628 -1.84281,-20.43316 -2.33459,-30.69163c-0.38179,-7.96417 -0.50271,-16.32102 -1.53133,-24.39317c-0.13723,0.0154 -0.22124,0.0154 -0.22124,0.0154c-3.71772,0 -7.55129,-0.26116 -11.25366,-0.01217c-5.85916,0.39405 -11.67502,1.61718 -17.56912,2.00588c-7.82209,0.51585 -15.84326,-1.23022 -23.63942,-0.48478c0.43831,0.49428 0.81145,1.06902 1.36377,1.4209c1.01316,0.64549 2.28395,0.79108 3.32448,1.39145c4.77026,2.7524 12.69574,9.02415 6.42846,14.55291c-3.93673,3.47284 -9.6278,3.89339 -14.50806,3.10068c-1.47937,-0.2403 -3.10166,-0.11109 -4.42018,-0.82369c-1.89351,-1.02336 -3.22875,-3.35792 -4.08202,-5.80191c-0.43437,0.46304 -0.89202,0.93334 -1.37648,1.41849c-4.28244,4.24731 -11.00881,9.07996 -17.59528,7.09131c-1.43548,-0.43341 -2.58405,-1.60628 -3.57229,-2.73404c-2.72239,-3.10668 -6.662,-11.16867 -3.52218,-15.22377c1.4842,-1.91685 4.25135,-2.36516 6.51568,-3.2312c1.11218,-0.42538 2.2391,-0.79335 3.37691,-1.1171c-1.83999,-0.83182 -3.63843,-1.78676 -5.3907,-2.99547c-1.51235,-1.04321 -5.23902,-3.12499 -5.88959,-5.10079c-1.95854,-5.9481 4.10693,-9.45543 9.06336,-9.94454c8.37664,-0.82664 17.88711,5.08987 22.74635,11.48783c0.49737,0.67381 1.08521,1.29042 1.52238,2.00231c0.74376,0.00329 1.48752,0.00657 2.23128,0.00986c8.89058,-1.77812 18.08112,0.6001 27.06912,-0.00588c5.8457,-0.39413 11.61722,-1.60974 17.43088,-1.99412c3.68696,-0.24377 7.48774,-0.03393 11.19884,-0.0137c-0.27631,-1.50385 -0.59404,-2.99239 -0.96119,-4.46098c0,0 -0.60634,-2.42535 1.81902,-3.03169c2.42535,-0.60634 3.0317,1.81902 3.0317,1.81902c2.78436,11.13741 2.86343,23.36525 3.40541,34.82638c0.48424,10.2401 2.33487,20.363 2.33208,30.6417c0.76889,6.84601 1.02417,13.68618 1.79033,20.5214c2.46503,-0.16315 4.51614,0.30024 7.23279,0.75942c3.53325,1.21052 6.37616,0.68702 10.05253,0.9311c7.53162,0.50004 15.13646,1.6316 22.63488,2.51206c2.1129,0.2481 4.26492,-0.14185 6.3632,-0.49271c1.01856,-0.17032 2.08336,0.0109 3.06418,-0.0054c-0.00243,-1.11129 0.08769,-2.26378 0.33112,-3.50905l-0.04855,-1.00971c0,0 0,-2.5 2.5,-2.5c0.2373,0 0.45209,0.02253 0.64648,0.0633c0.38038,-5.3424 0.35352,-10.67294 0.35352,-16.0633c0,-11.96935 -0.20967,-23.89594 -0.99371,-35.82278c-0.50117,-7.62389 -2.23497,-15.00298 -2.81543,-22.58026c-0.171,-0.37573 -0.2514,-0.85086 -0.16573,-1.45052c0.0145,-0.10154 0.03259,-0.19832 0.05392,-0.29056c-0.04861,-0.94807 -0.0765,-1.89975 -0.07904,-2.85589c0,0 0,-2.5 2.5,-2.5c2.5,0 2.5,2.5 2.5,2.5c-0.00142,0.46714 0.00359,0.93327 0.01448,1.39847c10.89576,2.20071 18.94716,8.67213 28.66516,13.89735c7.17993,3.86053 14.93809,6.39861 22.14166,10.13311l0.1944,-0.44965c2.47748,-1.97236 4.46943,-4.52317 6.94576,-6.44979c4.06178,-3.16011 11.37084,-4.51587 16.38036,-3.91023c1.98167,0.23958 9.08475,0.9018 9.61874,4.43854c0.56147,3.71877 -4.5295,5.81916 -6.69721,7.09949c-1.211,0.71526 -2.39143,1.38911 -3.566,2.01381c2.83927,0.58594 5.77255,1.413 5.25601,5.80949c-0.18673,1.58935 -2.06259,2.55598 -3.46988,3.31784c-3.00597,1.62732 -7.99436,0.39926 -11.08612,-0.37214c-0.46195,-0.11526 -0.94512,-0.20449 -1.43368,-0.29052c0.79425,1.23608 1.5575,2.49202 2.28639,3.76667c2.68746,4.86074 6.75653,12.31276 6.24939,18.14856c-0.14573,1.67694 -0.14966,3.71161 -1.38355,4.85656c-3.08166,2.85954 -9.88975,-1.10351 -12.2009,-2.97419c-5.09566,-4.1245 -5.96102,-9.10772 -6.40874,-15.25613c-0.33949,-4.66198 -0.65821,-8.70927 0.03413,-13.12464c-0.166,-0.20924 -0.29921,-0.44569 -0.39184,-0.70156c-0.02551,-0.00955 -0.05119,-0.01949 -0.07705,-0.02983c-0.40596,-0.16239 -0.71252,-0.36737 -0.94204,-0.59509c-7.63765,-4.26752 -16.08007,-6.85437 -23.80913,-11.02192c-8.82241,-4.75709 -16.25786,-10.80838 -25.96762,-13.12068c0.68757,6.76351 2.17949,13.4066 2.64098,20.23927c0.81329,12.04155 1.00629,24.0921 1.00629,36.17722c0,6.10835 0.05532,12.14677 -0.50852,18.2062c-0.27663,2.97292 0.60412,3.25804 -1.40438,6.17003c-0.56826,0.82387 -1.12755,1.43222 -1.69279,1.88497c0.1965,1.42716 0.4665,2.87714 0.59717,4.53259c0.46006,5.82826 0.17377,11.7298 1.00223,17.52898c0.01261,8.3789 -0.01429,16.692 0.50246,25.03897c0.43991,7.10593 -0.596,14.33998 -0.00469,21.43205c0.35417,4.24788 0.74351,9.02923 1.46081,13.21789c4.79413,-5.39364 11.84682,-10.99313 18.58801,-11.01137c2.11986,-0.00574 3.98862,0.92277 5.88817,1.67849c4.83785,1.92468 9.54174,4.23847 14.18243,6.58157c1.74523,0.88117 6.06121,3.54733 6.36919,5.42476c0.65318,3.98169 -6.13393,6.68063 -8.66577,7.94148c-3.78838,2.73429 -8.28196,2.69853 -12.72822,3.8037c-6.34377,1.57681 -12.45375,1.72406 -18.94786,2.06585c-4.30129,0.22638 -8.50869,0.80127 -12.84445,0.49531c-3.05247,-0.2154 -10.70182,0.30202 -12.47251,-2.76543c-0.46772,-0.81025 -0.01568,-3.51539 0.37915,-5.51106c-0.04569,-0.04201 -0.09031,-0.08535 -0.13379,-0.13002c-0.95883,-0.9851 -0.46295,-2.71419 -0.56664,-4.08497c-0.33427,-4.41895 -0.59215,-8.87959 -0.99174,-13.29687c-1.3544,-14.97246 -2.43148,-30.043 -2.62227,-45.10577c-0.29737,-3.87145 -1.0715,-8.54171 -0.87748,-12.39115c0.02702,-0.53607 0.73019,-0.90173 0.72371,-1.43844c-0.00417,-0.34515 -0.39352,0.66578 -0.73224,0.73224c-0.98129,0.19252 -2,0.00092 -3,0c-1.27426,-0.00117 -2.55115,0.07575 -3.82278,-0.00629c-0.60661,-0.03913 -1.2622,-0.65971 -1.78859,-0.35571c-0.34712,0.20047 0.59724,0.63845 0.60507,1.03922c0.05229,2.67392 -0.80596,5.29347 -0.99753,7.96103c-0.38317,5.33551 0.46667,10.77868 -0.00834,16.10809c-0.44906,5.03832 -1.17625,10.09327 -2.01398,15.11427c-1.23517,9.89076 -3.17311,19.61276 -4.49759,29.48305c-0.41246,3.07373 0.56403,6.46066 -0.74019,9.27437c-0.02469,0.05326 -0.05074,0.10578 -0.07808,0.15758zM201.66989,344.38675c-1.72596,-2.59271 -3.47914,-5.44132 -5.9584,-7.41624c-1.36324,-1.08591 -4.38005,-2.12886 -5.41157,-3.40619c-0.90254,-1.11762 -2.05636,-7.46572 -5.08355,-6.6082c-3.2503,0.92072 -4.60533,4.91167 -6.57771,7.18189c-2.96867,3.41697 -6.03677,6.74379 -9.01692,10.15256c-0.33879,1.47715 3.49333,1.67202 4.0346,1.8795c1.86937,0.71656 3.75361,1.42004 5.69632,1.90365c3.0759,0.7657 5.8531,1.71958 9.07459,1.93257c2.18494,0.14446 4.38977,-0.20688 6.56912,0.00588c3.74472,0.36557 7.45295,0.99097 11.25366,0.98784c5.2663,-0.00435 10.52606,0.04264 15.78196,0.18387c0.58145,0.01563 -0.86893,-0.77431 -1.28196,-1.18387l-0.44581,-0.85909c-3.39333,1.07619 -8.81169,1.15783 -12.05419,0.85909c-1.43729,-0.13242 -3.34374,0.3766 -4.26776,-0.73224c-0.825,-0.99 -0.75486,-2.39114 -0.7151,-3.76087c-0.99941,-0.22338 -1.59726,-1.12014 -1.59726,-1.12014zM249.92873,346.27395c0.00346,0.27544 0.51989,-0.20222 0.79405,-0.22884c0.67274,-0.06532 1.35134,-0.03989 2.02723,-0.04511c0.90204,-0.00698 1.80769,-0.07155 2.7062,0.00852c2.26156,0.20155 4.52329,0.49287 6.7938,0.49148c8.74262,-0.00536 17.92278,-0.31621 26.41389,-2.43032c3.77847,-0.94076 8.17833,-0.75874 11.27178,-3.1963c1.01984,-0.51189 2.06813,-0.97063 3.05951,-1.53565c0.877,-0.49982 1.62148,-1.22821 2.53678,-1.65386c0.01223,-0.00569 0.02602,-0.01025 0.0411,-0.01379c-5.71445,-1.31407 -11.29131,-5.65193 -16.75154,-7.84888c-1.03024,-0.41453 -2.8716,-1.31567 -4.11183,-1.32151c-2.17019,-0.01022 -3.90346,1.14459 -5.7368,2.18081c-4.20938,2.37919 -8.31736,5.92353 -11.22289,9.81951l-0.73224,0.76776c0,0 -0.51758,0.51759 -1.27269,0.71256c-0.21339,0.35878 -0.41899,0.71982 -0.5935,1.08985c-2.21246,0.24374 -4.4117,0.63597 -6.64792,0.41766c-1.243,-0.12135 -3.33449,-0.9243 -4.67927,-0.55472c-1.15444,0.31727 -2.04552,1.52206 -3.24254,1.54476c-0.05658,0.00108 -0.11351,0.00183 -0.17075,0.00224c-0.26636,0.58111 -0.49023,1.16726 -0.48237,1.79383zM208.1997,275.35712c0.81428,16.45333 0.87328,32.71551 0.61402,49.16941c-0.07062,4.42143 -0.27215,8.73283 -0.56853,13.12882c-0.14226,2.1101 0.32823,4.25464 0.00483,6.34465c-0.09586,0.61951 -0.73224,1.10535 -0.73224,1.73224c0,0.34518 0.39239,-0.67177 0.73224,-0.73224c1.10325,-0.1963 2.24336,0.07388 3.36175,0.00383c1.45459,-0.09112 2.89594,-0.33195 4.34516,-0.48658c1.3611,-0.14524 3.8771,0.72167 4.05702,-0.63528c0.33868,-2.55431 -0.07874,-5.1713 0.25981,-7.72563c1.30982,-9.88259 3.26372,-19.61642 4.50241,-29.51695c0.82412,-4.94986 1.52496,-9.92041 1.98602,-14.88573c0.48729,-5.24773 -0.38219,-10.63202 -0.00834,-15.89191c0.17741,-2.49619 0.62579,-5.51164 1.00247,-8.03897c0.19689,-1.32099 -0.38074,-3.05971 0.60507,-3.96078c2.34631,-2.14461 9.35727,-1.6674 12.38863,-1.36199c1.4361,0.14469 3.27757,-0.31793 4.26776,0.73224c1.05616,1.12014 0.47777,3.0418 0.72371,4.56156c0.67512,4.17167 0.56422,8.35726 0.88949,12.57939c0.18359,13.93372 0.97496,27.94834 2.10558,41.82822c0.25512,3.13193 0.57429,6.34351 0.99133,9.46675c0.317,2.37403 1.30657,5.58161 0.16732,7.87126c0.0078,-0.00685 0.01548,-0.01268 0.02297,-0.01731c0.88423,-0.54614 1.7445,-1.22272 2.75746,-1.45524c2.35933,-0.54156 7.35193,-0.04525 9.67281,0.86295c-3.56695,-20.89754 -3.12716,-42.46876 -3.09214,-63.7526c-0.82541,-5.77785 -0.56372,-11.66305 -0.99777,-17.47102c-0.09285,-1.24248 -0.24426,-2.39648 -0.3899,-3.51661c-0.84872,0.05953 -1.76367,0.11875 -2.77187,0.28624c-1.25441,0.20839 -2.40758,0.93408 -3.67639,1.01836c-1.32816,0.08822 -2.63699,-0.36841 -3.96041,-0.51107c-7.42942,-0.80086 -14.91163,-1.98713 -22.36512,-2.48794c-3.9283,-0.26395 -7.13176,0.17208 -10.94747,-1.0689c-2.58885,-0.42471 -4.36462,-1.04596 -6.90708,-0.47483l-0.94171,0.03068c-0.54987,8.1662 1.49621,16.19348 1.90111,24.37499zM319.46227,189.67439c2.69326,-0.48117 5.4861,-0.37596 8.23184,0.06375c1.53361,-0.35222 3.04305,-0.77526 4.41777,-1.46404c2.63362,-1.31955 4.95722,-3.23785 7.63022,-4.49898c-1.23111,-0.16681 -2.43624,-0.54292 -3.67263,-0.68322c-1.04381,-0.11845 -2.10129,-0.15898 -3.15,-0.09764c-2.76141,0.16152 -7.45379,1.16662 -9.63093,2.97627c-1.3992,1.16302 -2.55123,2.48353 -3.82627,3.70387zM328.7514,194.7744c-0.41451,0.13142 -0.83382,0.25573 -1.25883,0.37266c1.06792,0.37982 2.12649,0.72238 3.13973,0.88234c1.0287,0.16241 2.04779,0.43586 3.08864,0.47077c0.14312,0.0048 0.30858,-0.0153 0.48519,-0.04815c-1.74003,-0.50367 -3.99958,-1.41961 -4.42889,-1.49713c-0.32936,-0.05947 -0.67231,-0.12037 -1.02583,-0.18049zM318.74372,208.32278c0.19043,2.72258 0.20157,5.57022 1.28855,8.1568c0.85242,2.02839 3.86044,4.36082 5.76707,5.25131c0.87818,0.41016 1.9001,0.42691 2.79742,0.79328c0.24135,0.09855 0.46998,0.82013 0.53731,0.56829c0.39717,-1.48558 -0.48976,-3.03802 -0.82213,-4.53943c-0.93181,-4.20917 -3.10225,-8.49747 -5.16845,-12.19702c-1.33934,-2.35046 -2.80431,-4.63321 -4.37748,-6.83405l-0.35595,-0.44494c-0.18087,3.02197 0.10385,5.96018 0.33366,9.24577zM125.52985,170.22725c1.9877,-0.31337 3.97867,-0.59554 5.95398,-0.91142c-5.35811,-2.85629 -11.35535,-4.56972 -16.62879,-7.74121l-2.10503,-1.57462c0,0 -0.08229,-0.06171 -0.20096,-0.17679c-0.43379,0.21237 -0.89251,0.46275 -1.40407,0.75142c-0.55016,0.31045 -1.83731,0.38228 -1.08527,1.46867c1.16501,1.68297 5.64056,4.38826 7.32474,5.22892c2.48817,1.24197 5.38574,2.04299 8.14539,2.95504zM138.74372,177.17723c-0.65241,1.43804 -1.31922,2.68676 -2.04317,3.83684c0.06824,0.49746 0.18804,1.05365 0.42692,1.71283c0.44019,1.21467 1.15451,2.31179 1.74917,3.45878c0.20422,0.39389 0.23733,0.99305 0.64711,1.16315c2.6328,1.09285 7.6765,0.87732 10.34963,-0.19008c1.34722,-0.53796 4.14161,-1.89968 3.17246,-2.9791c-3.00782,-3.35003 -6.08713,-4.31457 -9.69738,-6.60948c-0.78725,-0.50043 -1.20422,-1.45712 -1.97466,-1.98306c-0.97545,-0.6659 -2.22563,-0.87731 -3.3727,-1.23957l0.62064,1.8619l-0.40479,0.13493zM131.74218,179.66758c0.04263,-0.73913 0.19634,-1.46868 0.42502,-2.18828l-0.34254,-0.08563l0.79748,-3.18993c-0.50808,0.08796 -1.01607,0.17473 -1.52402,0.261c-0.5419,1.53527 -2.34811,1.53527 -2.34811,1.53527l-2.42848,-0.17881c-0.31414,-0.12568 -0.62743,-0.2489 -0.93982,-0.37019c-2.33454,0.42387 -4.67194,0.89217 -7.01686,1.47222c-2.1133,0.52275 -4.06555,1.55858 -6.0907,2.35738c-0.5065,0.19978 -1.177,-0.02201 -1.60215,0.31814c-0.7028,0.56229 0.16387,1.81173 0.46551,2.65973c0.63103,1.77398 2.19912,6.8158 4.44002,7.38246c4.55227,1.15114 9.58038,-3.05736 12.40472,-5.90869c1.34456,-1.34254 2.61048,-2.64509 3.75993,-4.06466z" fill="#000000" stroke="none" stroke-width="0.5"/><path d="M250.67537,164.89366c0.60634,2.42535 -1.81902,3.03169 -1.81902,3.03169l-2.19534,0.54063c-12.28743,2.04411 -24.30627,5.72513 -36.55744,7.50889c0,0 -2.47487,0.35356 -2.82843,-2.12132c-0.35356,-2.47487 2.12132,-2.82843 2.12132,-2.82843c12.20699,-1.70587 24.20587,-5.44804 36.44256,-7.49111l1.80466,-0.45937c0,0 2.42535,-0.60634 3.03169,1.81902z" fill="#000000" stroke="none" stroke-width="0.5"/></g></g></svg>