<svg version="1.1" xmlns="http://www.w3.org/2000/svg" xmlns:xlink="http://www.w3.org/1999/xlink" width="627.71697" height="360" viewBox="0,0,627.71697,360"><g transform="translate(122.21697,6.5)"><g data-paper-data="{&quot;isPaintingLayer&quot;:true}" fill="#ff0000" fill-rule="nonzero" stroke="none" stroke-width="0" stroke-linecap="butt" stroke-linejoin="miter" stroke-miterlimit="10" stroke-dasharray="" stroke-dashoffset="0" style="mix-blend-mode: normal"><path d="M462.5,23c0,12.42641 -9.62588,22.5 -21.5,22.5c-11.87412,0 -21.5,-10.07359 -21.5,-22.5c0,-12.42641 9.62588,-22.5 21.5,-22.5c11.87412,0 21.5,10.07359 21.5,22.5z"/><path d="M472.5,153c0,14.08326 -10.74517,25.5 -24,25.5c-13.25483,0 -24,-11.41674 -24,-25.5c0,-14.08326 10.74517,-25.5 24,-25.5c13.25483,0 24,11.41674 24,25.5z"/><path d="M475.5,326c0,12.97869 -10.29745,23.5 -23,23.5c-12.70255,0 -23,-10.52131 -23,-23.5c0,-12.97869 10.29745,-23.5 23,-23.5c12.70255,0 23,10.52131 23,23.5z"/><path d="M-122.21396,44.5v-51h605.71396v51z"/><path d="M-122.21697,179.5v-51h618.71697v51z"/><path d="M-120.26802,353.5v-51h625.76802v51z"/></g></g></svg>