<svg version="1.1" xmlns="http://www.w3.org/2000/svg" xmlns:xlink="http://www.w3.org/1999/xlink" width="351.51467" height="344.27178" viewBox="0,0,351.51467,344.27178"><g transform="translate(13.78736,-20.90341)"><g data-paper-data="{&quot;isPaintingLayer&quot;:true}" fill-rule="nonzero" stroke-linecap="butt" stroke-linejoin="miter" stroke-miterlimit="10" stroke-dasharray="" stroke-dashoffset="0" style="mix-blend-mode: normal"><path d="M90.91042,151.8703c41.08816,16.61629 63.44432,57.16909 49.93387,90.57722c-13.51044,33.40813 -57.77135,47.0206 -98.85951,30.40431c-41.08816,-16.61629 -63.44432,-57.16909 -49.93387,-90.57722c13.51044,-33.40813 57.77135,-47.0206 98.85951,-30.40431z" fill="#ff0000" stroke="#000000" stroke-width="3"/><path d="M37.5,178.94046c-2.5,0 -2.5,-2.5 -2.5,-2.5c0,-1.80042 0,-3.74969 0,-5.73295c-2.3995,-0.45455 -4.81149,-1.06899 -7.29057,-1.89535c0,0 -2.37171,-0.79057 -1.58114,-3.16228c0.79057,-2.37171 3.16228,-1.58114 3.16228,-1.58114c1.94075,0.64692 3.83307,1.15131 5.70943,1.54363c0,-1.44075 0,-2.84666 0,-4.17192c0,0 0,-2.5 2.5,-2.5c2.5,0 2.5,2.5 2.5,2.5c0,1.65838 0,3.31676 0,4.97514c3.69959,0.42803 7.44964,0.52486 11.5,0.52486h2c0,0 2.5,0 2.5,2.5c0,2.5 -2.5,2.5 -2.5,2.5h-2c-4.02627,0 -7.79326,-0.10334 -11.5,-0.49975c0,1.33325 0,2.6665 0,3.99975v1c0,0 0,2.5 -2.5,2.5z" fill="#000000" stroke="none" stroke-width="0.5"/><path d="M9.5,239.94046c-2.5,0 -2.5,-2.5 -2.5,-2.5v-1c0.02051,-2.16096 0.67701,-4.2688 1.03228,-6.40046c0.12919,-0.77514 0.20458,-1.56562 0.2863,-2.35446c-1.35869,-0.29768 -2.72928,-0.56722 -4.12404,-0.76381c-2.17165,-0.3061 -4.39834,-0.43492 -6.48511,-1.10956c0,0 -0.14417,-0.04806 -0.34957,-0.15602c0.05805,0.11607 0.11487,0.23262 0.17036,0.34968c1.64723,3.47497 2.92765,6.09293 5.46129,8.9771c2.84127,3.23437 4.55215,7.21343 8.44722,9.28544c1.64959,1.13382 3.28744,2.28515 4.9058,3.46312l2.17995,1.58702c0.76363,0.53083 1.16878,1.44856 1.05158,2.36684c0.15942,0.10815 0.31593,0.22129 0.46972,0.33889c0.0061,0.00249 0.01217,0.00494 0.01822,0.00738l0.5601,0.22651l0.15412,-0.2764l2.31823,1.29263c1.10738,0.59659 1.61163,1.94377 1.12912,3.13692c-0.51764,1.28 -1.97492,1.89802 -3.25493,1.38038l-2.78118,-1.12473c-1.05984,-0.43049 -2.09017,-0.92829 -3.11607,-1.43603l-0.87303,-0.20429c0,0 -0.89229,-0.22063 -1.461,-0.93536l-0.00004,-0.00004c-0.96316,-0.39507 -2.15915,-0.42783 -2.85795,-1.18697c-0.10172,-0.11051 -0.19926,-0.22407 -0.29307,-0.34032l-0.06255,0.06809l-2.05428,-1.88734c-0.77751,-0.68152 -1.07877,-1.8051 -0.66926,-2.81774c0.08026,-0.19846 0.1831,-0.38101 0.30437,-0.54586c-3.25338,-2.50526 -5.04643,-5.90963 -7.85932,-9.08443c-2.83844,-3.20363 -4.41334,-6.27344 -6.22703,-10.13208c-1.55079,-3.29933 -4.18438,-6.18442 -5.58173,-9.53292c-2.00346,-4.80093 -1.10759,-9.86058 -0.41051,-14.77604c-0.3222,-0.75456 -0.19231,-1.53153 -0.19231,-1.53153c1.24472,-7.39498 2.78543,-14.63654 4.66514,-21.85635c-0.14566,-0.51522 -0.12764,-1.08096 0.08864,-1.61576l1.04102,-2.57419c0.1158,-0.41521 0.23275,-0.83042 0.35085,-1.24568c0.05147,-0.24023 0.10893,-0.4754 0.19604,-0.68563c0.10205,-0.35503 0.20495,-0.7101 0.30871,-1.06522l0.0982,-0.09463l-0.05437,-0.02199l0.99976,-2.47216c0.51764,-1.28 1.97492,-1.89802 3.25493,-1.38038c0.20249,0.08189 0.3884,0.18729 0.55588,0.31179c0.89477,-1.25875 2.17154,-3.13616 2.40539,-3.47459c5.24719,-7.59395 13.26847,-11.42677 21.50103,-14.91936c5.75141,-2.43998 11.95152,-4.4987 18.18979,-5.01454c1.60397,-0.12014 3.23051,-0.12416 4.86826,-0.03575c-0.3282,-0.62737 -0.38922,-1.38939 -0.10298,-2.09721c0.40952,-1.01264 1.40714,-1.61096 2.43981,-1.56043l2.78872,0.07121l-0.00268,0.10511l0.32502,-0.07592c2.85009,0.81935 5.17644,1.78116 7.71509,2.95088c1.5351,0.39942 3.01959,1.17576 4.55797,1.58754l0.11805,0.12242l0.02777,-0.06867l2.47217,0.99976c1.07628,0.43525 1.68452,1.53483 1.54315,2.63477l1.55262,0.43579c0.09959,0.02653 0.19863,0.05951 0.29664,0.09914c1.28,0.51764 1.89802,1.97492 1.38038,3.25493c-0.44605,1.10297 -1.58981,1.71441 -2.71661,1.53124l-2.67031,-0.37446l0.0061,-0.04345c-0.05705,0.00547 -0.1142,0.01034 -0.17146,0.01457c-2.13086,0.15736 -4.70951,-1.10548 -7.09908,-2.39595c-5.58093,-1.48004 -11.47052,-2.63587 -16.93228,-2.17126c-11.2663,0.85432 -24.33026,6.50498 -32.82653,13.91999c-0.87728,0.76564 -1.7208,1.66094 -2.53552,2.62631c0.23167,-0.17958 0.5236,-0.33543 0.89,-0.45298c2.3805,-0.76369 3.1442,1.61681 3.1442,1.61681l0.72796,2.29439c1.00517,1.98127 2.22365,3.84921 3.23314,5.82829c1.93294,3.78949 2.77035,8.07068 5.14106,11.60653c0.88503,1.32001 5.09999,6.58104 4.65853,8.23308c-0.44931,1.68142 -6.95331,3.23487 -8.18855,3.62311c-6.74124,2.1188 -13.31973,3.57013 -19.12638,7.79766c0,0 -2.02316,1.46861 -3.49177,-0.55454c-1.46861,-2.02316 0.55455,-3.49178 0.55455,-3.49178c5.5068,-3.98662 11.26612,-5.69572 17.703,-7.55737c1.1807,-0.34148 4.26267,-1.50426 5.99958,-1.98301c-0.90684,-0.98377 -1.54887,-2.20067 -2.28748,-3.32125c-2.47673,-3.7576 -3.37557,-8.0941 -5.41572,-12.07888c-1.07533,-2.1003 -2.34585,-4.09742 -3.4063,-6.20527l-0.86262,-2.66356c0,0 -0.33196,-1.03475 0.12405,-1.95867c-1.87392,2.3322 -3.59708,4.96705 -5.23377,7.14106c-0.49895,0.66274 -0.58265,1.62305 -1.19447,2.18328c-0.03785,0.03465 -0.07585,0.06911 -0.11402,0.10339l0.029,0.02111l-1.61121,2.21319c-2.01287,7.49364 -3.63525,14.99808 -4.92082,22.67432c0.29917,0.72044 0.19747,1.44563 0.19747,1.44563c-0.55914,3.98514 -1.67761,8.49855 0.02128,12.41904c0.99992,2.30749 2.56978,4.4054 3.94481,6.58213c0.02363,-0.19109 0.06949,-0.3948 0.1418,-0.61174c0.79057,-2.37171 3.16228,-1.58114 3.16228,-1.58114c1.75954,0.60946 3.67197,0.62385 5.51489,0.89044c1.54148,0.22298 3.06567,0.5529 4.58304,0.91296c0.37519,-1.2824 0.61874,-2.69778 1.64973,-3.45979c1.2027,-0.88893 2.97452,-0.3146 4.46178,-0.47189c0,0 2.5,0 2.5,2.5c0,2.5 -2.5,2.5 -2.5,2.5c-0.51274,-0.1573 -1.11791,-0.80503 -1.53822,-0.47189c-0.14511,0.11501 -0.19487,0.27541 -0.199,0.45911c2.55307,0.58498 5.11541,1.04534 7.73722,1.01278h3c0,0 2.5,0 2.5,2.5c0,2.5 -2.5,2.5 -2.5,2.5h-3c-2.30203,-0.02185 -4.53017,-0.35391 -6.7379,-0.80102c0.07707,0.44394 0.03511,0.91416 -0.14624,1.36261c-0.3834,0.94805 -1.28227,1.53295 -2.24279,1.56223c-0.24022,1.45109 -0.39126,2.91098 -0.37306,4.37618v1c0,0 0,2.5 -2.5,2.5z" fill="#000000" stroke="none" stroke-width="0.5"/><path d="M285.8349,248.63974c0.16987,0.12045 0.3356,0.24237 0.49737,0.36574c0.09113,0.02156 0.183,0.04734 0.27545,0.07704c-0.21796,-0.19006 -0.40264,-0.41729 -0.54417,-0.67182c-0.06801,0.07567 -0.14422,0.15319 -0.22865,0.22904zM291.61282,253.03026c3.94089,4.39629 5.03218,11.01148 11.58788,12.20826c1.35143,0.24671 2.68188,0.79991 4.02888,0.17678c3.71805,-1.72002 2.38653,-5.05696 0.81401,-8.04225c-2.01297,-3.82147 -5.65404,-5.82505 -9.61849,-6.67194c-1.38155,0.02145 -5.5437,0.11322 -6.50591,-0.50943c-0.47184,-0.00209 -0.94369,-0.00418 -1.41553,-0.00627l-0.21969,-0.15766l-0.02426,0.12128l-2.42976,-0.48595c1.49036,0.90804 2.95625,2.44505 3.78287,3.3672zM293.25,245.19756c2.04323,0.01005 4.09051,0.20484 6.06732,0.62149c1.84064,-0.03267 3.71344,-0.19447 5.30828,-0.54226c1.01828,-0.22206 2.38078,-0.28699 2.88833,-1.19727c0.3838,-0.68834 -0.5351,-1.72089 -0.93828,-2.02547c-2.33551,-1.76438 -4.9728,-1.92991 -7.74773,-2.39238c-2.30776,-0.38461 -7.95106,-1.77638 -9.54981,0.99767c-0.71542,1.24134 -0.96806,2.6887 -1.39229,4.06456c0.11888,-0.01735 0.24049,-0.02633 0.36419,-0.02633c0.11851,0 0.2351,0.00824 0.34921,0.02419l3.84139,0.48018c0.2698,-0.00145 0.5396,-0.00292 0.8094,-0.00437zM285.04127,254.34453c-0.46402,-0.27078 -0.92068,-0.55119 -1.33976,-0.87641l-0.94907,-0.40675c-0.23345,0.55767 -0.43532,1.12452 -0.56931,1.71057c-0.80073,3.50208 -0.70202,7.042 -0.93795,10.58096c-0.37336,5.60049 -1.25811,9.19173 1.64856,14.05842c1.45934,2.44338 2.93228,4.72842 5.85627,5.28624c0.8318,-0.18443 2.71603,-0.52967 3.47928,-0.9843c1.0831,-0.64515 0.54931,-1.46631 0.52072,-2.5157c-0.05623,-2.06409 0.29344,-4.14805 0.01873,-6.19455c-0.51652,-3.84792 -2.00489,-7.82033 -3.35955,-11.42765c-1.19678,-3.18691 -2.13072,-6.72529 -4.36791,-9.23084zM283.66209,241.49184c0.38043,-1.32734 0.76803,-2.64898 1.55981,-3.75605c3.25008,-4.54427 9.8056,-3.77647 14.45019,-3.00234c5.33637,0.88943 15.74077,3.44777 12.31399,11.58215c-0.69726,1.65513 -2.23113,2.6854 -4.06833,3.32659c1.80171,1.40154 3.35257,3.17592 4.53868,5.37989c2.93522,5.4541 3.42323,12.07456 -3.18599,14.95775c-4.36543,1.90436 -9.5658,0.22976 -13.29398,-2.64459c1.05315,3.5237 1.76319,7.09706 1.77355,10.86233c0.0016,0.58395 0.03719,5.85776 -0.12829,6.29057c-1.54559,4.04233 -5.21478,4.52225 -8.87171,5.20943c-6.29602,-1.28361 -11.61727,-7.04187 -12.95489,-13.52723c-0.73332,-3.55546 0.22379,-7.58917 0.45972,-11.12811c0.25466,-3.82 0.18372,-7.6422 1.06205,-11.41904c0.28658,-1.2323 0.90924,-2.36273 1.46731,-3.51116c-0.02249,-0.13481 -0.0342,-0.27326 -0.0342,-0.41446c0,-0.79536 0.37142,-1.50397 0.95027,-1.96185c0.02328,-0.09837 0.0444,-0.19736 0.06318,-0.29706c0.30156,-1.60122 -0.68338,-3.18688 -0.97249,-4.7904c-0.88546,-4.91109 -2.10656,-10.10383 -3.47976,-14.90092c-2.25716,-13.64607 -7.09876,-26.96075 -10.00622,-40.52839c-1.68466,-7.86145 -3.35314,-16.06314 -6.37617,-23.59292c0,0 -0.92847,-2.3212 1.39272,-3.24967c2.32119,-0.92847 3.24966,1.39272 3.24966,1.39272c3.11259,7.80768 4.87765,16.25792 6.62383,24.40709c2.90402,13.55258 7.7061,26.8449 9.99378,40.47161c1.36345,4.78101 2.56622,9.94094 3.47328,14.84405z" fill="#ff0000" stroke="none" stroke-width="0.5"/><path d="M248.70943,167.81217c-0.17268,-0.05756 -0.32859,-0.1235 -0.46927,-0.19629c0.00984,0.10498 0.00984,0.16732 0.00984,0.16732l-0.04855,0.00971c0.16666,0.83334 0.33334,1.66666 0.5,2.5c2.70033,13.50166 4.96605,26.9936 7.50142,40.50715c1.90591,10.15852 4.80073,20.05598 6.45466,30.3095c1.78849,4.3949 4.59096,7.33818 6.82189,11.54242c1.61971,3.05238 1.17748,3.61588 1.73829,7.23077c0.32388,2.08767 1.48905,5.24849 -0.19995,7.16822c-0.86535,0.98356 -2.59567,0.38506 -3.86731,0.69995c-0.09552,0.02365 -0.19075,0.04831 -0.28571,0.07387c0.20368,2.32274 0.37883,4.64694 0.37673,6.96901c1.36981,8.06929 2.79429,16.18813 5.39601,23.96467c1.57814,4.71705 4.02794,8.84958 5.959,13.37901c3.32578,7.80081 6.10086,16.35346 11.14749,23.35454c1.46118,1.84085 3.8577,4.40684 4.00385,6.90408c0.03722,0.63597 -0.00469,1.23788 -0.11541,1.80426c5.75212,-1.27708 11.53299,-2.4487 17.41137,-2.93835c3.83648,-0.31957 7.8531,-0.00852 11.7062,-0.00852c3.47119,0 7.01066,-0.30364 10.42208,0.53589c1.37295,0.33787 3.15325,0.25533 4.01127,1.37914c0.92796,1.21541 0.34769,3.03849 0.52154,4.55774c-1.91242,4.98708 -3.42167,11.65689 -7.96095,15.03176c-4.90144,3.64413 -10.92453,2.31198 -16.37624,1.46607c-12.47376,-1.9355 -27.25089,0.37225 -37.73272,-8.13767l-0.20059,-0.80161c-0.54933,-0.04924 -1.14874,-0.31712 -1.6844,-1.03132l0.00002,0.00002c-1.5,-2 0.5,-3.5 0.5,-3.5c1.48683,-1.09749 3.01994,-1.82021 4.5191,-2.69341c-3.10445,-3.12562 -4.21242,-8.72564 -5.8288,-12.60339c-4.49614,-10.78645 -7.73157,-22.48258 -12.95825,-32.90484c-2.09529,-4.89986 -4.72229,-9.66096 -7.38546,-14.2819c-0.75784,-1.31494 -1.60942,-3.85575 -3.51393,-4.36069c-0.80009,-0.21213 -3.37902,0.45799 -3.88196,0.54975c-0.94643,0.17267 -1.8883,0.40105 -2.84807,0.46724c-0.48236,0.03327 -1.08024,-0.49411 -1.44035,-0.17146c-0.27113,0.24292 0.65585,0.41616 0.78918,0.75489c0.19974,0.50745 0.9795,5.3503 1.01914,5.60799c1.31081,8.51965 3.75004,16.79135 5.42576,25.16993c3.44868,8.60027 3.88227,18.13229 7.86663,26.64988c0.93986,2.00919 2.03281,3.94425 2.97663,5.95158c0.53427,1.1363 1.74124,2.08248 1.74546,3.33812c0.00378,1.12469 -0.22121,2.3082 -0.68152,3.36635c0.60665,0.32117 1.19644,0.94566 1.19644,2.15994c0,2.5 -2.5,2.5 -2.5,2.5l-1.589,-0.03402c-4.95309,0.81217 -9.75007,1.19971 -14.7048,2.0255c-9.90198,0.02631 -19.80419,0.00852 -29.7062,0.00852c-6.88521,0 -14.06011,0.03202 -20.70294,-2.10086c-3.50186,-1.12438 -9.54198,-4.62102 -8.73018,-9.47352c0.59859,-3.57805 7.78734,-4.6258 10.34409,-5.35524c13.05058,-2.56273 27.14226,-4.03826 40.26267,-0.47791c1.51353,0.41071 2.99456,0.88772 4.45482,1.40782c-0.46385,-1.35853 -0.95569,-2.71207 -1.5276,-4.05085c-1.37178,-8.06795 -4.25214,-15.90518 -6.55393,-23.73644c-4.01131,-13.64746 -7.36859,-27.84669 -9.94343,-41.93901c-1.66964,0.04677 -3.16166,-0.10809 -4.06528,-0.71619c-1.30032,-0.87507 -1.37773,-2.82112 -1.92655,-4.28924c-1.05459,-2.82105 -1.38449,-5.77895 -2.05077,-8.69039c-3.22514,-14.09287 -5.13585,-28.78742 -7.5315,-43.16617c-2.54242,-17.8258 -5.95019,-35.63347 -10.10103,-53.16268c-6.91175,-0.42164 -7.74485,8.05227 -8.98335,13.80176c-0.31763,1.47456 -0.75485,6.19754 -0.98753,7.43766c-1.09749,5.84931 -3.00538,11.57491 -4.22295,17.40267c-1.21597,5.82011 -2.20726,11.63813 -3.54716,17.44433c-0.76787,3.3194 -1.46124,6.8154 -2.0037,10.35411c4.86695,0.13019 9.81398,2.03603 12.2357,5.23797c0.90542,1.19712 1.66258,2.56818 2.01374,4.02749c0.3308,1.37468 0.39808,2.8922 -0.02383,4.24171c-1.61141,5.15416 -5.24218,4.86408 -9.27917,4.48349c0.07469,0.0575 0.15014,0.11577 0.22637,0.17483c2.24313,3.62481 4.9715,7.20807 6.86178,11.0214c1.40467,2.83369 3.05428,5.98906 2.77592,9.32331c-0.5121,6.13414 -6.7147,11.50614 -12.89568,9.16144c-6.95125,-2.63689 -9.61265,-11.93375 -10.35873,-19.52847c-0.80016,2.31742 -1.58491,4.63506 -2.35228,6.9382c-1.16431,3.49447 -1.61686,6.71502 -3.96812,9.86034c-2.15748,2.8861 -6.36122,4.2019 -9.67303,4.88596c-3.59716,-0.0315 -4.40669,0.3295 -8.09981,-1.8859c-6.75045,-4.04942 -6.8227,-18.02726 -2.61301,-23.64562c2.44925,-3.26882 6.85497,-4.34318 10.58418,-4.92692c3.73981,-0.5854 7.34436,-1.17077 10.92131,-1.93587c-0.07122,-4.19565 -0.23738,-7.88994 1.8147,-11.87549c1.32505,-2.57353 3.8004,-4.18976 6.70825,-4.98081c0.58055,-4.11063 1.36264,-8.1864 2.25346,-12.05546c1.33236,-5.77353 2.31674,-11.5542 3.52468,-17.34206c1.20897,-5.79279 3.11315,-11.48517 4.2024,-17.29875c0.88606,-4.7291 1.21132,-9.54302 2.54278,-14.18839c0.04251,-0.14829 2.43105,-6.73165 2.93042,-7.37328c1.98999,-2.55693 5.11942,-3.58624 8.21989,-3.70605c-0.13744,-0.55989 -0.27564,-1.11947 -0.41458,-1.67873c-2.2012,0.57793 -2.94272,-1.64664 -2.94272,-1.64664c-1.1309,-3.39269 -2.58133,-6.41064 -2.10956,-10.09603c0.24787,-1.93627 1.77394,-3.88102 1.17157,-5.73783c-0.13405,-0.4132 -0.60873,-0.6513 -1.00463,-0.83008c-2.13776,-0.96539 -4.42683,-1.74333 -6.27064,-3.19327c-4.29286,-3.37583 -9.23163,-6.6562 -14.81548,-7.46564c-3.58208,-0.51926 -7.40229,0.50184 -11,0c-2.14042,-0.29856 -4.22984,-1.03483 -6.39011,-1.09601c-3.94482,-2.83451 -9.66787,-6.72532 -12.33606,-11.05738c-0.55279,-0.89751 -0.45799,-2.09593 -1,-3c-0.4725,-0.78813 -1.51044,-1.13693 -1.96048,-1.9381c-0.96694,-1.72138 -1.71954,-3.58228 -2.21412,-5.49369c-2.57885,-9.96657 4.61611,-21.26521 13.07641,-26.06195c1.51717,-0.86019 3.2572,-1.25234 4.85057,-1.9615c3.76227,-1.67447 7.81708,-3.73307 11.97378,-4.3268c2.5806,-0.36861 5.42939,-0.27526 8.21183,-0.15745c-1.30501,-4.61085 -1.8249,-9.46992 -1.29264,-13.68029c0.45079,-3.56591 2.00098,-7.15974 3.13381,-10.55444c3.07492,-7.68829 5.76305,-14.91728 11.7435,-20.85164c4.55749,-4.52238 12.90524,-7.67592 19.20351,-8.75618c0.98561,-0.16905 2.01361,0.1644 3,0c2.26017,-0.37669 4.53394,-1.33333 6.80091,-1c1.04288,0.15334 1.9565,0.85093 3,1c2.55316,0.36474 5.32594,0.06621 7.64419,1.19644c5.36953,2.61782 7.66757,6.38545 11.11967,11.01999c2.71604,6.27917 5.86434,12.95549 7.26881,19.67691c0.6867,3.28634 0.95162,6.65091 1.62492,9.94002c0.84824,4.14371 2.6646,10.08694 1.33627,14.35358c-1.01217,3.25113 -3.90039,5.72498 -5.0226,9.07135c-0.29273,0.87289 -0.75752,1.70094 -0.90399,2.60989c-0.07987,0.49565 0.01781,1.01729 0.08601,1.53061c0.22421,-0.23487 0.45322,-0.46551 0.6785,-0.69883c2.48434,-2.57306 4.47231,-5.46171 7,-8c5.185,-5.16045 9.33139,-10.73863 15.22924,-15.20275c5.77255,-4.36928 13.08383,-5.74275 19.93219,-7.45484c3.54787,-0.88697 7.60942,-2.58771 11.20588,-3.04236c4.16316,-0.5263 9.25035,-0.45695 13.19103,1.09601c1.44146,0.56806 3.31662,0.66397 4.23754,1.90993c0.88893,1.2027 0.40184,2.96786 0.47189,4.46178c0.14504,3.09305 -1.5029,6.09445 -3.06011,8.77084c-7.40435,8.26994 -17.71689,12.23416 -27.79618,16.26426c-3.08262,1.23256 -6.06337,2.70698 -9.11975,4.00323c-1.10679,0.4694 -2.2873,0.74714 -3.40256,1.19605c-0.76281,0.30705 -2.71563,1.05567 -1.99478,1.45129c0.63584,0.34896 5.23698,1.74981 5.83008,2.00463c8.86638,3.80934 18.7919,5.51424 28.01381,8.77117c0.16146,1.67043 0.75368,3.35483 0.48438,5.0113c-0.73955,4.54901 -4.25105,7.68873 -6.21882,11.64527c-4.89501,9.84226 -12.27686,16.83554 -20.59806,23.7706c-3.01152,2.50986 -6.03633,5.35364 -9.47774,7.32581c-0.86432,0.49532 -1.98469,0.41154 -2.84594,0.91218c-2.99868,1.7431 -5.59657,5.7459 -8.1877,8.1877l-0.75492,2.47624c0,0 -0.79057,2.37171 -3.16228,1.58114zM184.19698,87.56859c-1.79081,-2.1864 -3.4462,-3.80104 -5.58105,-4.98082c0.29383,0.48208 0.59818,0.94658 0.91218,1.39091c1.41478,2.00194 2.97206,2.83622 4.66887,3.58991zM279.86502,353.42057c1.85081,1.08988 3.47694,1.35766 5.52665,1.91668c3.75965,1.02536 7.63823,2.62032 11.53555,2.92254c5.72849,0.44421 11.50172,0.15268 17.20508,1.02311c3.94372,0.60188 9.04049,2.19201 12.62376,-0.53393c3.42965,-2.60908 4.45229,-8.22055 6.03905,-11.96824c0.77926,-0.6608 -2.36032,-0.44421 -3.72233,-0.53352c-3.89312,-0.25528 -7.91831,0.00629 -11.82278,0.00629c-11.79288,0 -23.04211,3.15728 -34.50971,5.45145c0,0 -0.19618,0.03924 -0.48865,0.04001c-0.80447,0.48312 -1.61449,0.90944 -2.41791,1.35858zM251.17848,351.43231c0,0 2.26476,0.90591 1.42533,3.16513c1.64019,-0.3875 3.46404,-1.00759 3.16112,-1.82465c-0.24128,-0.65079 -0.92408,-1.05152 -1.25454,-1.66188c-2.45538,-4.53513 -4.6386,-9.47259 -6.16434,-14.42462c-1.90969,-6.19823 -2.58946,-12.95186 -4.9924,-18.97392c-1.72032,-8.60161 -4.22912,-17.08617 -5.57424,-25.83007c-0.27917,-1.81471 -2.18603,-8.16999 -1.19168,-9.63712c1.33037,-1.96293 5.55267,-2.31288 7.71157,-2.70422c1.87449,-0.33978 4.19859,-1.05479 6.11804,-0.45025c3.83402,1.20756 4.49273,3.31402 6.48607,6.63931c2.81204,4.69102 5.45885,9.6989 7.61454,14.7181c5.23835,10.5066 8.51841,22.23497 13.04175,33.09516c1.46464,3.51649 2.35165,8.24784 4.95807,11.18894c1.44952,1.63565 6.70327,0.38121 6.23439,-2.12834c-0.1383,-0.74022 -2.85088,-3.91593 -2.99615,-4.09592c-2.77007,-3.90813 -4.32964,-7.67583 -6.27729,-11.96333c-1.53601,-3.38133 -3.67761,-6.69822 -5.06052,-10.14315c-0.3217,-0.80138 -0.17624,-1.74452 -0.51469,-2.53897c-1.95758,-4.59503 -4.44708,-8.82325 -6.041,-13.62099c-2.69964,-8.126 -4.22079,-16.59979 -5.60399,-25.03533c-0.00167,-1.89867 -0.10952,-3.79569 -0.25412,-5.69133c-0.1843,0.05897 -0.36938,0.11541 -0.55543,0.16862c-5.5671,1.59224 -10.76602,2.63831 -16.49277,3.09118c-2.11846,0.16753 -4.12242,1.0415 -6.20628,1.45802c-3.33951,0.66749 -6.94299,1.06625 -10.3227,1.54421c-0.79488,0 -1.87728,0.1253 -3.08089,0.27403c2.52721,13.77623 5.82099,27.65599 9.7431,40.99012c2.29973,7.81848 5.24449,15.69079 6.5597,23.756c1.09814,2.55391 2.12704,5.26189 3.09084,7.96395c2.14081,0.89672 4.27372,1.81343 6.4385,2.67131zM232.57636,349.66104c-12.17435,-3.33953 -25.64362,-1.95452 -37.73733,0.52209c-1.11672,0.31957 -2.23793,0.62387 -3.35017,0.9587c-0.86425,0.26018 -1.69486,0.64272 -2.57859,0.82613c-0.24169,0.05016 -0.82779,-0.36545 -0.72714,-0.14007c1.72074,3.8536 9.12891,4.39592 12.47668,4.95943c1.39849,0.2354 2.81237,0.39316 4.22845,0.47001c12.30379,0.66772 24.82841,-0.03289 37.15555,0.00469c0.11227,-0.01871 0.22447,-0.03718 0.33659,-0.05542c-0.12393,-0.434 -0.25638,-0.86187 -0.44009,-1.24989c-0.55755,-1.17765 -1.03896,-2.36982 -1.48068,-3.56967c-2.56524,-1.02982 -5.16756,-1.98107 -7.88326,-2.72601zM246.71178,355.97189c0.177,0.26353 0.52487,-0.38319 0.83202,-0.46338c0.08273,-0.0216 0.16586,-0.04128 0.24933,-0.0594c-0.40289,-0.16705 -0.8049,-0.33518 -1.20631,-0.50389c-0.0377,0.37044 -0.07086,0.73512 0.12496,1.02667zM178.42723,245.78948c0.57005,0.04124 4.38069,0.88827 5.43991,0.411c0.69037,-0.31107 0.50532,-2.63763 0.44975,-2.84291c-0.9522,-3.51696 -5.87993,-5.42553 -10.03217,-5.48366c-0.26895,2.47122 -0.4476,4.93308 -0.51016,7.3404c1.73307,0.18989 3.47754,0.49015 4.65268,0.57516zM166.45904,244.28087c0.38631,-0.88171 1.2667,-1.49768 2.29096,-1.49768c0.04471,0 0.08915,0.00118 0.13328,0.0035c0.06549,-1.18526 0.15404,-2.37855 0.26335,-3.5756c-1.6807,1.214 -2.38574,3.06252 -2.6876,5.06978zM172.86738,252.19231c-0.42032,0.32709 -0.82681,0.46259 -0.82681,0.46259c-0.11126,0.03707 -0.22244,0.07389 -0.33355,0.11047c-0.19384,1.1711 -0.45702,2.35047 -0.45702,3.51782c0,4.97124 0.73027,10.87624 3.21445,15.33974c1.25107,2.24788 2.06337,3.3798 4.18704,4.32846c2.88768,1.28994 5.96983,-2.14896 6.10432,-4.83857c0.28493,-5.69806 -5.66869,-11.96464 -8.3623,-16.65528c-1.41263,-1.00938 -2.40827,-1.68804 -3.52613,-2.26523zM163.28406,255.11311c-2.82999,0.65294 -5.68806,1.18472 -8.65176,1.64067c-3.30289,0.50813 -8.60404,0.49575 -10.91582,3.57309c-1.60341,2.13438 -1.42776,4.11063 -1.46704,6.50954c-0.09176,5.60363 0.88767,11.06512 7.75422,10.95895c6.60984,-1.24945 7.50453,-5.69308 9.35885,-11.2537c1.26315,-3.78787 2.56924,-7.62488 3.92155,-11.42855zM267.2083,263.39398c-0.18651,-0.10314 -0.39457,-0.24275 -0.44614,-0.36444c-0.27566,-0.65054 -0.3451,-1.36928 -0.44081,-2.07303c0.03741,0.75237 0.08729,1.50527 0.14455,2.25856c0.26634,0.03509 0.51499,0.09356 0.7424,0.17891z" fill="#ff0000" stroke="none" stroke-width="0.5"/><path d="M244.72406,348.80841c-0.9638,-2.70206 -2.00041,-5.41338 -3.09856,-7.96729c-1.31521,-8.06521 -4.2851,-15.97052 -6.58483,-23.789c-3.92211,-13.33414 -7.20018,-27.26248 -9.72739,-41.0387c1.20361,-0.14874 2.28808,-0.27576 3.08296,-0.27576c3.37971,-0.47796 6.99238,-0.88247 10.33189,-1.54996c2.08386,-0.41652 4.09487,-1.29327 6.21334,-1.4608c5.72674,-0.45288 10.94554,-1.5009 16.51264,-3.09314c0.18605,-0.05321 0.37175,-0.10958 0.55605,-0.16855c0.1446,1.89564 0.25366,3.79282 0.25533,5.69149c1.38319,8.43554 2.9311,16.92194 5.63074,25.04793c1.59392,4.79774 4.0994,9.06819 6.05698,13.66323c0.33845,0.79445 0.19178,1.74441 0.51348,2.54578c1.38291,3.44493 3.518,6.77681 5.05401,10.15815c1.94765,4.2875 3.50199,8.06195 6.27206,11.97008c0.14527,0.17999 2.85709,3.35651 2.99539,4.09673c0.46888,2.50955 -4.79014,3.76873 -6.23966,2.13308c-2.60641,-2.9411 -3.55866,-7.74808 -5.02331,-11.26457c-4.52334,-10.86019 -7.79591,-22.51031 -13.03426,-33.01691c-2.15569,-5.01921 -4.77518,-10.01916 -7.58721,-14.71018c-1.99335,-3.32529 -2.64248,-5.43274 -6.4765,-6.6403c-1.91944,-0.60455 -4.23515,0.10799 -6.10965,0.44778c-2.1589,0.39134 -6.37116,0.73597 -7.70154,2.69889c-0.99435,1.46713 0.91875,7.81733 1.19792,9.63205c1.34512,8.7439 3.86559,17.17324 5.58591,25.77485c2.40294,6.02206 3.05317,12.74762 4.96286,18.94585c1.52574,4.95204 3.69554,9.88674 6.15092,14.42187c0.33046,0.61036 1.00841,1.11096 1.24969,1.76175c0.30292,0.81705 -1.52455,1.43691 -3.16474,1.8244c0.83943,-2.25922 -1.42751,-3.1654 -1.42751,-3.1654c-2.16478,-0.85788 -4.30621,-1.77663 -6.44702,-2.67336z" data-paper-data="{&quot;noHover&quot;:false,&quot;origItem&quot;:[&quot;Path&quot;,{&quot;applyMatrix&quot;:true,&quot;segments&quot;:[[[251.17848,351.43231],[-2.16478,-0.85788],[0,0]],[[252.60381,354.59744],[0.83943,-2.25922],[1.64019,-0.3875]],[[255.76493,352.77279],[0.30292,0.81705],[-0.24128,-0.65079]],[[254.51038,351.11091],[0.33046,0.61036],[-2.45538,-4.53513]],[[248.34604,336.68628],[1.52574,4.95204],[-1.90969,-6.19823]],[[243.35364,317.71237],[2.40294,6.02206],[-1.72032,-8.60161]],[[237.7794,291.8823],[1.34512,8.7439],[-0.27917,-1.81471]],[[236.58772,282.24518],[-0.99435,1.46713],[1.33037,-1.96293]],[[244.2993,279.54096],[-2.1589,0.39134],[1.87449,-0.33978]],[[250.41733,279.09071],[-1.91944,-0.60455],[3.83402,1.20756]],[[256.90341,285.73003],[-1.99335,-3.32529],[2.81204,4.69102]],[[264.51794,300.44813],[-2.15569,-5.01921],[5.23835,10.5066]],[[277.5597,333.54329],[-4.52334,-10.86019],[1.46464,3.51649]],[[282.51777,344.73223],[-2.60641,-2.9411],[1.44952,1.63565]],[[288.75216,342.6039],[0.46888,2.50955],[-0.1383,-0.74022]],[[285.75601,338.50798],[0.14527,0.17999],[-2.77007,-3.90813]],[[279.47872,326.54464],[1.94765,4.2875],[-1.53601,-3.38133]],[[274.4182,316.40149],[1.38291,3.44493],[-0.3217,-0.80138]],[[273.9035,313.86252],[0.33845,0.79445],[-1.95758,-4.59503]],[[267.86251,300.24153],[1.59392,4.79774],[-2.69964,-8.126]],[[262.25852,275.2062],[1.38319,8.43554],[-0.00167,-1.89867]],[[262.0044,269.51487],[0.1446,1.89564],[-0.1843,0.05897]],[[261.44897,269.68349],[0.18605,-0.05321],[-5.5671,1.59224]],[[244.9562,272.77468],[5.72674,-0.45288],[-2.11846,0.16753]],[[238.74993,274.23269],[2.08386,-0.41652],[-3.33951,0.66749]],[[228.42723,275.7769],[3.37971,-0.47796],[-0.79488,0]],[[225.34634,276.05093],[1.20361,-0.14874],[2.52721,13.77623]],[[235.08944,317.04106],[-3.92211,-13.33414],[2.29973,7.81848]],[[241.64914,340.79706],[-1.31521,-8.06521],[1.09814,2.55391]],[[244.73998,348.76101],[-0.9638,-2.70206],[2.14081,0.89672]]],&quot;closed&quot;:true}]}" fill="#ff0000" stroke="none" stroke-width="0.5"/><path d="M117.87171,206.23103c-0.79057,2.37171 -3.16228,1.58114 -3.16228,1.58114l-3,-1c-0.86738,-0.30092 -1.73477,-0.60183 -2.60215,-0.90275c-4.75039,0.07271 -8.57605,1.84157 -13.06726,2.96791c-0.27556,0.06911 -7.55945,1.44404 -8.52864,1.84941c-2.67887,1.12045 -4.26055,3.83743 -6.40105,5.62599c-0.68256,0.57034 -1.64002,0.81522 -2.20594,1.50145c-1.01571,1.23165 -1.46509,2.85591 -2.43389,4.1248c-2.22954,2.92014 -4.05754,3.1399 -5.71941,6.54892c-0.61047,1.25226 -0.58213,2.73049 -1.0199,4.05307c-1.44784,4.37419 -3.78917,8.19193 -3.7312,12.85948c0,0 0,2.5 -2.5,2.5c-2.5,0 -2.5,-2.5 -2.5,-2.5c0.05078,-5.34933 2.30517,-9.42601 3.9827,-14.42528c0.51229,-1.52669 0.54324,-3.22322 1.2662,-4.66217c1.45831,-2.90257 4.3056,-4.87212 6.28059,-7.45108c1.05608,-1.37904 1.59311,-3.12076 2.71107,-4.45013c0.70238,-0.8352 1.81406,-1.22105 2.6491,-1.92362c2.62864,-2.21163 4.27905,-4.92578 7.59895,-6.37401c1.88137,-0.8207 7.39249,-1.64215 9.27717,-2.11175c5.2218,-1.30108 9.59369,-3.06896 15.12693,-3.07093c1.13262,0.36575 2.26523,0.7315 3.39785,1.09725l3,1c0,0 2.37171,0.79057 1.58114,3.16228z" fill="#000000" stroke="none" stroke-width="0.5"/><path d="M265,161.44046c0,2.5 -2.5,2.5 -2.5,2.5l-2.04329,-0.1903c-1.0924,1.36132 -1.92581,2.9181 -3.02335,4.27527c-0.50488,0.62431 -1.40148,0.92729 -1.75786,1.64677c-0.99091,2.00056 -0.79341,4.45264 -1.77131,6.45925l-0.96615,3.8646c-0.25265,1.1133 -1.24829,1.9444 -2.43804,1.9444c-1.1246,0 -2.07576,-0.74256 -2.38994,-1.76412l-0.93956,-2.81868c-1.72352,-3.44375 -3.06746,-7.32171 -4.84991,-10.69239c-0.61206,-1.15742 -1.43087,-2.20213 -2.28236,-3.19671c-0.24555,-0.28681 -0.60971,-0.72592 -0.96384,-0.59498c-0.43344,0.16026 -0.41868,0.82775 -0.68575,1.20488c-1.40906,1.98982 -3.41274,3.53126 -4.71314,5.59374c-1.02971,1.63316 -1.71049,3.46183 -2.56574,5.19275c-1.62403,-1.152 -3.62125,-1.9068 -4.8721,-3.45599c-1.1755,-1.45587 -1.5164,-3.42695 -2.1164,-5.19934c-0.28705,-0.84795 -0.6041,-1.70507 -0.80862,-2.57874c-0.21035,0.2553 -0.40143,0.52101 -0.52636,0.82095c-0.47378,1.13748 -0.56734,2.39824 -0.86093,3.59496c-0.72247,2.94491 -2.40827,12.05766 -6.0249,12.86138c-1.98854,0.44191 -3.3149,-2.36864 -4.98543,-3.53436c-1.05233,-0.73434 -2.27391,-1.25972 -3.18279,-2.16559c-0.85125,-0.84842 -1.15168,-2.14865 -2,-3c-1.93082,-1.93772 -4.64962,-3.09502 -6.26034,-5.30599c-0.87777,-1.20488 -1.21819,-2.73075 -2,-4c-1.04803,-1.70147 -1.8637,-1.5112 -3.76246,-2.09007c0,0 -2.37171,-0.79057 -1.58114,-3.16228c0.79057,-2.37171 3.16228,-1.58114 3.16228,-1.58114c3.27742,1.15804 4.10214,0.89068 6.23754,3.90993c0.86079,1.21707 1.14677,2.77762 2,4c1.41463,2.02668 3.9891,2.94926 5.73966,4.69401c0.85125,0.84842 1.15168,2.14865 2,3c0.79097,0.7938 2.07169,0.99778 2.81721,1.83441c0.59127,0.66352 0.12603,2.48441 1.01457,2.46564c0.83003,-0.01754 -0.06515,-1.67355 0.09076,-2.48899c0.18085,-0.94591 0.64684,-1.81571 0.9094,-2.74226c1.12568,-3.97241 1.2262,-8.85259 4.46695,-11.886c1.29762,-1.2146 2.78637,-3.29084 4.50774,-2.84815c1.7799,0.45774 2.08703,3.05142 2.82592,4.73415c0.55178,1.25661 1.47554,3.54994 1.94525,5.6377c0.52629,-0.55798 1.27505,-0.98206 1.76582,-1.57674c3.09143,-3.74598 5.43317,-9.58669 11.35041,-5.3901c3.2403,2.29806 5.16032,7.14213 6.88392,11.4753c1.32555,-4.51873 5.7269,-9.03761 8.6976,-11.75689l3.95671,-0.1903c0,0 2.5,0 2.5,2.5z" fill="#000000" stroke="none" stroke-width="0.5"/></g></g></svg>