<svg version="1.1" xmlns="http://www.w3.org/2000/svg" xmlns:xlink="http://www.w3.org/1999/xlink" width="278.55881" height="207.62293" viewBox="0,0,278.55881,207.62293"><g transform="translate(-65.97747,-115.91445)"><g data-paper-data="{&quot;isPaintingLayer&quot;:true}" fill-rule="nonzero" stroke="none" stroke-width="0.5" stroke-linecap="butt" stroke-linejoin="miter" stroke-miterlimit="10" stroke-dasharray="" stroke-dashoffset="0" style="mix-blend-mode: normal"><path d="M195.12612,139.22116c4.72664,-2.51263 9.76016,-3.17673 15.03074,-4.055c5.23751,-0.87277 10.48839,-1.21935 15.73084,-1.36276l0.21636,1.26243c0.832,3.32798 2.07849,6.78876 2.27756,10.23137c0.39506,6.83204 -1.03009,13.92275 -1.3366,20.7438c-0.18143,4.03766 -3.33187,9.58585 -7.68313,9.34403c-2.67506,0.33438 -5.11929,0.47518 -7.79529,0.03051c-16.03301,-2.66419 -16.28454,-22.44066 -16.27068,-35.2821c0,0 0.00084,-0.41846 -0.1698,-0.91226z" data-paper-data="{&quot;noHover&quot;:false,&quot;origItem&quot;:[&quot;Path&quot;,{&quot;applyMatrix&quot;:true,&quot;segments&quot;:[[[390.66667,280.33317],[0,0],[-0.02772,25.68288]],[[423.13424,350.73107],[-32.06601,-5.32838],[5.352,0.88934]],[[438.68931,350.67617],[-5.35013,0.66877],[8.70251,0.48363]],[[454.00966,332.02248],[-0.36287,8.07531],[0.61302,-13.6421]],[[456.67633,290.64386],[0.79013,13.66408],[-0.39814,-6.88522]],[[452.14929,270.21252],[1.66399,6.65595],[0,0]],[[451.71955,267.68973],[0,0],[-10.4849,0.28682]],[[420.32199,270.43197],[10.47502,-1.74554],[-10.54115,1.75656]],[[390.32539,278.51049],[9.45328,-5.02526],[0.34127,0.9876]]],&quot;closed&quot;:true}]}" fill="#ffffff"/><path d="M217.20964,153.41787c0.23883,0.81071 -0.00898,1.46326 -0.33736,1.92639c0.41365,1.00508 2.75133,0.95217 3.29631,2.07845c0.61032,1.26133 0.0514,2.80418 -0.01916,4.20363c-0.19541,3.87599 -1.18594,6.63079 -2.97951,10.0378c-1.50648,0.27041 -2.99254,0.91696 -4.51944,0.81123c-8.95858,-0.62033 -7.12408,-11.04269 -6.81404,-16.93332c0.23535,-4.47174 0.45689,-8.52515 2.1601,-12.76391c0.42744,-1.06376 0.65472,-2.30385 1.47099,-3.10883c2.99533,-2.95388 8.73441,-2.69278 11.27927,0.94387c1.76419,2.52106 0.9845,7.62815 0.34524,10.32642c0,0 -0.60634,2.42536 -3.0317,1.81902c-0.18963,-0.0474 -0.36071,-0.10594 -0.51502,-0.17355c-0.10828,0.22144 -0.21301,0.44358 -0.30786,0.66763c-0.00802,0.057 -0.01743,0.11216 -0.02782,0.16518z" fill="#000000"/><path d="M244.37301,171.2556c0.56207,0.02195 1.3494,0.01844 1.03249,0.89142c-0.91312,2.51533 -4.19278,2.53624 -6.30791,2.56663c-0.40171,0.00577 -0.90636,0.30468 -1.2084,0.03977c-0.82137,-0.72037 0.22375,-2.21738 0.37991,-3.29867l0.20926,1.36995c0,0 1.06636,-0.5006 1.42383,-1.58221c1.47014,-0.03113 3.01779,-0.04362 4.47083,0.01312z" data-paper-data="{&quot;noHover&quot;:false,&quot;origItem&quot;:[&quot;Path&quot;,{&quot;applyMatrix&quot;:true,&quot;segments&quot;:[[[479.87132,342.55922],[2.94028,-0.06226],[-0.71493,2.16322]],[476.85695,345.64222],[[476.62806,342.95334],[0,0],[-0.31232,2.16259]],[[475.86887,349.4643],[-1.64274,-1.44075],[0.60409,0.52981]],[[478.27758,349.37063],[-0.80343,0.01154],[4.23026,-0.06077]],[[490.71357,344.31656],[-1.82624,5.03066],[0.63382,-1.74596]],[[488.66134,342.56439],[1.12414,0.0439],[-2.90608,-0.11348]]],&quot;closed&quot;:true}]}" fill="#ff9a9a"/><path d="M183.88721,177.35311c-2.43598,-0.56215 -2.89819,1.8758 -2.89819,1.8758c-2.01918,8.83021 -0.03929,14.81855 5.15075,21.99853c2.45729,3.39944 5.02377,6.96033 8.8317,8.97571c6.28673,3.32731 14.05409,4.09646 21.02646,4.78541c0.28657,0.00034 0.58407,0.10068 0.87947,0.10106c-0.43083,0.08088 -0.86596,0.1542 -1.30268,0.21665c-9.81691,-0.01858 -20.20351,-0.63537 -29.42604,-4.33854c-2.13387,-0.85682 -5.95641,-1.90627 -7.76341,-3.54301c-6.54646,-5.92964 -10.9931,-15.01102 -13.76874,-23.31111c-2.21214,-11.17794 -3.21242,-21.49291 -1.29118,-32.61327c0.51854,4.24767 1.44312,8.45495 2.54626,12.8667c1.00004,3.99945 1.6509,10.46151 7.98392,6.24714c1.24436,-0.82807 1.23135,-2.73338 1.7352,-4.1406c1.80471,-5.04041 1.94154,-11.88315 5.38905,-15.98829c3.17424,-2.51229 6.17726,-5.4143 9.38898,-7.95669c0.08822,12.83029 1.14167,29.20736 13.67237,35.84687c2.10782,1.11685 4.45407,1.51898 6.77116,1.90612c3.02943,0.50617 5.7665,0.41257 8.79473,0.03405c5.95254,-0.20803 10.25782,-5.13874 11.92419,-10.78874c0.66564,-2.25691 0.54331,-4.7508 0.60585,-7.16443c0.43444,1.06189 1.00601,2.02831 1.56681,3.01609l1.17398,1.50467c-0.45954,0.36348 -0.83323,0.9592 -0.83323,1.92748c0,0.51785 0.10848,0.931 0.27858,1.25654l-0.92442,0.77002c-0.11603,1.04248 -0.49246,2.09553 -0.34583,3.13415c0.20991,1.48691 0.34752,3.21972 1.39593,4.29481c3.12764,3.20725 10.62154,1.43184 13.524,-1.40108c0.44852,0.13777 0.81053,0.1375 0.81053,0.1375c9.44391,-0.15213 14.64379,-6.37788 16.8704,-14.06697c0.80973,7.45058 0.21559,15.22432 -1.30572,22.83087c-2.42373,12.4095 -12.20213,23.14221 -24.24248,26.61587c-2.33533,0.67375 -4.74676,0.81124 -7.15986,0.8271c1.92932,-0.71113 3.63673,-1.77462 5.09882,-3.12453c5.78385,-5.34009 6.63025,-15.35184 -1.46319,-19.10825c-4.78014,-2.2186 -8.40269,1.42415 -12.55749,3.01618c-3.15471,1.20881 -6.32132,1.21496 -9.62525,0.90399c-3.07553,-1.04339 -6.66449,-1.92412 -9.03592,-4.3331c-3.10891,-3.15813 -6.00092,-8.52301 -10.30312,-10.3166c-2.50975,-1.04631 -6.25213,-0.45529 -8.88339,-0.19529l-0.38531,0.12505c0.07399,-0.57272 0.13096,-2.3543 -1.90367,-2.82383z" data-paper-data="{&quot;noHover&quot;:false,&quot;origItem&quot;:[&quot;Path&quot;,{&quot;applyMatrix&quot;:true,&quot;segments&quot;:[[[371.68167,360.34928],[0.14799,-1.14545],[0,0]],[[372.25248,360.10798],[0,0],[5.26253,-0.52]],[[390.21892,360.48716],[-5.0195,-2.09263],[8.6044,3.58718]],[[410.78553,381.04764],[-6.21782,-6.31626],[4.74287,4.81796]],[[428.79577,389.69376],[-6.15106,-2.08678],[6.60785,0.62194]],[[447.99311,387.902],[-6.30941,2.41763],[8.30961,-3.18406]],[[473.25074,382.00092],[-9.56027,-4.4372],[16.18687,7.51281]],[[476.14989,420.24933],[11.5677,-10.68018],[-2.92417,2.69982]],[[465.8435,426.33125],[3.85863,-1.42225],[4.82621,-0.03173]],[[480.14999,424.6857],[-4.67067,1.3475],[24.08071,-6.94732]],[[528.5971,371.51942],[-4.84746,24.81901],[3.04262,-15.2131]],[[531.21208,325.90084],[1.61946,14.90117],[-4.45321,15.37819]],[[497.66667,353.99984],[18.88781,-0.30427],[0,0]],[[496.04557,353.72431],[0.89704,0.27553],[-5.80491,5.66583]],[[468.7978,356.53537],[6.25528,6.41449],[-2.09681,-2.15018]],[[466.00909,347.96788],[0.41982,2.97382],[-0.29325,-2.07724]],[[466.70528,341.713],[-0.23206,2.08496],[0,0]],[[468.55473,340.17445],[0,0],[-0.34019,-0.65107]],[[468,337.6665],[0,1.0357],[0,-1.93655]],[[469.66914,333.81649],[-0.91909,0.72696],[0,0]],[[467.32545,330.81387],[0,0],[-1.1216,-1.97554]],[[464.34776,324.65724],[0.86887,2.12379],[-0.1251,4.82727]],[[463.15046,339.00637],[1.33127,-4.51382],[-3.33273,11.29999]],[[439.31069,360.65684],[11.90509,-0.41606],[-6.05644,0.75705]],[[421.53242,360.60194],[6.05886,1.01233],[-4.63418,-0.77429]],[[407.98237,356.74599],[4.21565,2.2337],[-25.0614,-13.27903]],[[380.68273,284.97347],[0.17645,25.66057],[-6.42343,5.0848]],[[362.03553,301.03553],[6.34848,-5.02459],[-6.89502,8.21029]],[[351.27665,332.97772],[3.60942,-10.08083],[-1.0077,2.81443]],[[347.80901,341.24839],[2.48871,-1.65614],[-12.66605,8.42874]],[[331.64744,328.70526],[2.00008,7.9989],[-2.20627,-8.82351]],[[326.73875,303.04804],[1.03709,8.49533],[-3.8425,22.24072]],[[329.3325,368.21666],[-4.42428,-22.35589],[5.55128,16.60019]],[[356.8487,414.78702],[-13.09291,-11.85929],[3.61399,3.27348]],[[372.3631,421.86008],[-4.26775,-1.71365],[18.44507,7.40633]],[[431.14555,430.51258],[-19.63383,-0.03716],[0.87345,-0.12491]],[[433.74731,430.07948],[-0.86166,0.16176],[-0.59079,-0.00075]],[[432.00093,430.07696],[0.57314,0.00068],[-13.94473,-1.3779]],[[389.89071,420.49154],[12.57346,6.65462],[-7.61586,-4.03076]],[[372.20138,402.51722],[4.91457,6.79889],[-10.38008,-14.35995]],[[361.87804,358.45887],[-4.03837,17.66041],[0,0]],[[367.8743,354.71121],[-4.87196,-1.1243],[4.06927,0.93906]]],&quot;closed&quot;:true}]}" fill="#ffda77"/><path d="M226.98985,197.97467c2.29454,-1.27394 5.52174,-3.52253 7.66151,-2.43422c5.03946,2.56313 3.06567,9.92123 -1.41064,12.07941c-3.16806,1.52742 -6.87321,2.09899 -10.49804,2.32032l1.12054,-1.83124c1.36765,-3.00883 2.57396,-5.64577 3.18754,-8.90687c0,0 0.1104,-0.58146 -0.06091,-1.2274z" data-paper-data="{&quot;noHover&quot;:false,&quot;origItem&quot;:[&quot;Path&quot;,{&quot;applyMatrix&quot;:true,&quot;segments&quot;:[[[454.16935,398.4776],[0,0],[-1.22717,6.52219]],[[447.80183,416.15219],[2.7353,-6.01766],[0,0]],[[445.55655,419.81014],[0,0],[7.24966,-0.44266]],[[466.42947,415.15427],[-6.33612,3.05485],[8.95262,-4.31635]],[[469.24926,391.16543],[10.07892,5.12625],[-4.27954,-2.17662]],[[454.03657,396.03159],[4.58908,-2.54788],[0.34263,1.29187]]],&quot;closed&quot;:true}]}" fill="#ffffff"/><path d="M218.05185,210.07883c-0.59804,0.00345 -1.19936,0.01042 -1.78118,0.01118c-3.40146,-0.34461 -7.09761,-0.71683 -10.61301,-1.43413c2.75871,-2.71704 5.19805,-5.75899 6.95179,-9.20739c0.24445,0.07953 0.49498,0.15805 0.73834,0.23799c2.92621,0.30509 5.78126,0.42568 8.57375,-0.03948c-0.57376,2.23434 -1.52109,4.16534 -2.52364,6.37094l-1.10115,1.72619c0,0 -0.74526,1.18716 -0.2449,2.3347z" data-paper-data="{&quot;noHover&quot;:false,&quot;origItem&quot;:[&quot;Path&quot;,{&quot;applyMatrix&quot;:true,&quot;segments&quot;:[[436.51001,415.43318],[[438.69817,412.01416],[0,0],[2.00509,-4.41119]],[[443.75845,399.34731],[-1.14751,4.46868],[-5.58497,0.93033]],[[426.70423,399.47258],[5.85241,0.61019],[-0.48671,-0.15988]],[[425.24055,398.99461],[0.48889,0.15906],[-3.50748,6.8968]],[[411.40553,417.26864],[5.51742,-5.43408],[7.03081,1.4346]],[[432.49907,420.08938],[-6.80292,-0.68922],[1.16365,-0.00152]],[[436.04109,420.07967],[-1.19607,0.0069],[-1.00072,-2.29507]]],&quot;closed&quot;:true}]}" fill="#ffffff"/><path d="M200.15438,207.13705c-0.97761,-0.36347 -1.95059,-0.77945 -2.86624,-1.25245c-2.71875,-1.40446 -4.6944,-4.08085 -6.46257,-6.55022c4.47339,-1.63765 7.45116,-3.24492 9.86031,-6.64023c0.39312,0.48021 0.79583,0.92871 1.19086,1.31918c1.74073,1.72062 3.84932,2.89762 6.04847,3.8014c-1.87778,3.50508 -4.7076,6.50154 -7.70519,9.158z" data-paper-data="{&quot;noHover&quot;:false,&quot;origItem&quot;:[&quot;Path&quot;,{&quot;applyMatrix&quot;:true,&quot;segments&quot;:[[[400.42818,413.84612],[0,0],[5.99518,-5.31291]],[[415.75331,395.65329],[-3.75555,7.01015],[-4.3983,-1.80757]],[[403.71447,388.1187],[3.48146,3.44124],[-0.79006,-0.78093]],[[401.35391,385.48668],[0.78624,0.96041],[-4.8183,6.79062]],[[381.7509,398.67552],[8.94678,-3.27531],[3.53633,4.93874]],[[394.60929,411.6748],[-5.43751,-2.80893],[1.8313,0.94602]],[[400.29805,414.17468],[-1.95521,-0.72695],[0,0]]],&quot;closed&quot;:true}]}" fill="#ffffff"/><path d="M187.96471,195.11488c-1.81662,-3.06001 -2.82507,-5.99255 -2.85789,-9.3663c0.49341,-0.07287 0.84733,-0.25235 0.84733,-0.25235l0.63468,-0.50282c1.62817,-0.16495 4.9877,-0.87941 6.56913,-0.20068c1.60893,0.69054 3.03675,2.14605 4.3287,3.73489c-2.04141,3.68788 -4.28842,4.68354 -8.48711,6.20982l-0.69017,0.22572c0,0 -0.14269,0.04614 -0.34467,0.15174z" data-paper-data="{&quot;noHover&quot;:false,&quot;origItem&quot;:[&quot;Path&quot;,{&quot;applyMatrix&quot;:true,&quot;segments&quot;:[[376.66886,389.83975],[[378.04128,389.3842],[0,0],[8.39738,-3.05256]],[[394.87538,377.07552],[-4.08282,7.37577],[-2.5839,-3.17768]],[[386.28108,369.67918],[3.21786,1.38107],[-3.16286,-1.35747]],[[373.24752,370.05836],[3.25634,-0.32991],[0,0]],[371.98607,371.05531],[[370.29723,371.55205],[0.98682,-0.14574],[0.06562,6.74749]],[[375.98256,390.14506],[-3.63323,-6.12003],[0.40396,-0.21119]]],&quot;closed&quot;:true}]}" fill="#ffffff"/><path d="M249.49653,140.35956c-1.48892,-0.59259 -3.30903,-1.49357 -4.73059,-0.75383c-2.13516,1.11107 -2.49271,5.22857 -2.60202,7.34621c-0.26579,5.14945 -1.34949,13.66479 1.64093,18.16883c0.20262,0.30517 0.47786,0.77141 0.85183,1.16678c-1.44898,-0.24684 -3.27301,-0.17168 -4.98627,-0.06599c0.1152,-1.04077 -0.58275,-1.91094 -0.58275,-1.91094l-1.11933,-1.34927c-1.9443,-3.37716 -2.27829,-5.93759 -2.69714,-9.70621c-0.68522,-6.16533 -1.30217,-12.2083 -1.30217,-18.46112c0,0 0.00081,-0.51908 -0.2353,-1.0838c1.49147,-0.00235 2.99355,-0.00453 4.49314,-0.00453c0.20782,0 0.4156,-0.00086 0.62118,-0.00123c0.98143,0.74355 6.75888,0.49559 6.89538,0.49598l0.8245,-0.00024l3.29044,0.4688c0.12902,0.02054 0.26241,0.03132 0.39721,0.03132c0.68202,0 1.30452,-0.27244 1.75557,-0.71525c0.1587,0.16051 0.32034,0.32211 0.48241,0.484c4.73688,4.73165 8.08438,10.14203 10.23919,15.89679c-0.68346,0.73921 -0.6828,1.79824 -0.6828,1.79824l0.00005,0.33454c0.01216,8.03567 -2.41404,18.73886 -11.76987,19.51055c0.00827,-0.86441 -0.19367,-1.69041 -0.59226,-2.4379c0.16839,0.02417 0.31989,-0.06798 0.47302,-0.07971c3.97581,-0.30454 7.76893,-6.34274 6.25239,-10.14376c-0.54085,-1.35557 -2.12535,-1.85216 -3.22769,-2.80868c-0.52902,0.06576 -1.21433,0.57901 -1.59448,0.20529c-0.31649,-0.31114 0.37555,-0.84437 0.48404,-1.27472c0.32604,-1.29335 0.66131,-2.63199 1.50082,-3.66846l0.87643,-2.19595c0,0 0.59035,-1.72598 -0.73307,-2.72209c-0.52167,-2.73222 -1.1737,-5.31009 -4.22278,-6.52363z" data-paper-data="{&quot;noHover&quot;:false,&quot;origItem&quot;:[&quot;Path&quot;,{&quot;applyMatrix&quot;:true,&quot;segments&quot;:[[[507.50633,293.69281],[-1.04333,-5.46445],[2.64685,1.99221]],[508.99342,299.16431],[[507.25,303.58317],[0,0],[-1.67902,2.07295]],[[504.23296,310.99557],[0.65209,-2.5867],[-0.21698,0.86071]],[[503.11671,313.41323],[-0.63298,-0.62228],[0.76031,0.74745]],[[506.29085,313.01864],[-1.05805,0.13153],[2.20468,1.91304]],[[512.90488,318.75776],[-1.0817,-2.71113],[3.03308,7.60204]],[[500.3333,339.08248],[7.95161,-0.60908],[-0.30626,0.02346]],[[499.36696,339.04297],[0.33678,0.04834],[0.79718,1.49498]],[[500.54955,343.91895],[0.01655,-1.72882],[18.71166,-1.54338]],[[524,304.99984],[0.02432,16.07135],[0,0]],[524,304.33317],[[525.36692,300.74862],[-1.36692,1.47842],[-4.30963,-11.50952]],[[504.96447,269.03553],[9.47375,9.4633],[-0.32415,-0.32379]],[[504.00259,268.06818],[0.3174,0.32102],[-0.9021,0.88562]],[[500.5,269.5],[1.36403,0],[-0.2696,0]],[[499.70775,269.43758],[0.25804,0.04108],[0,0]],[493.14466,268.5],[[491.5,268.5],[0,0],[-0.27299,-0.00078]],[[477.74004,267.49871],[1.96286,1.48709],[-0.41115,0.00073]],[[476.5,267.5],[0.41563,0],[-2.99917,0]],[[467.52779,267.50015],[2.98294,-0.00471],[0.47221,1.12943]],[[468,269.6665],[0,0],[0,12.50562]],[[470.64233,306.50715],[-1.37044,-12.33067],[0.8377,7.53724]],[[476.00788,325.85248],[-3.8886,-6.75432],[0,0]],[478.23768,328.54303],[[479.39471,332.35887],[0.2304,-2.08154],[3.42651,-0.21138]],[[489.33902,332.47844],[-2.89796,-0.49367],[-0.74796,-0.79072]],[[487.57579,330.33563],[0.40524,0.61035],[-5.98084,-9.00807]],[[484.25621,293.8341],[-0.53159,10.2989],[0.21861,-4.23529]],[[489.50662,279.1147],[-4.27032,2.22215],[2.84312,-1.47948]],[[499.00319,280.61963],[-2.97784,-1.18518],[6.09817,2.42708]]],&quot;closed&quot;:true}]}" fill="#ffffff"/><path d="M134,200.5c0,1.47924 -0.87526,2.08322 -1.59,2.32982c1.14494,0.47655 2.27647,1.00683 3.49046,1.20245c0.83581,0.13468 1.68184,0.23002 2.52543,0.33613c0.45477,-0.14197 0.82412,-0.14197 0.82412,-0.14197l2.74634,0.01217c7.32995,1.44705 14.7447,4.93758 22.25366,4.98783c2.3826,0.01594 5.35941,-0.51099 7.98507,-1.03733c-1.54379,-1.88357 -2.80945,-3.95171 -4.11169,-6.12478c-1.55468,-2.5943 -3.74062,-4.95375 -5.09845,-7.67457c-0.81596,-1.63503 -2.65094,-7.37256 -3.19117,-8.99809c-2.52546,-12.51108 -3.55269,-24.0634 -1.03713,-36.62225c1.76679,-8.82059 2.96416,-17.13093 9.71344,-23.81458c1.42094,-1.40712 3.73814,-2.59084 5.40349,-3.56076c3.98458,-0.61134 7.92574,-1.28988 11.84616,-2.09553l0.37225,-0.28462c0,0 1.49285,-0.74643 2.64888,0.20029c2.6014,-0.8398 5.1885,-1.69328 7.81529,-2.3772c6.83333,-1.77914 14.89765,-0.51416 21.80921,-0.08219c5.51899,0.34494 10.53753,0.81905 15.91903,2.06205c2.8404,0.65606 6.24507,0.94085 8.94604,2.15086c1.73591,0.77766 3.13358,2.16183 4.76582,3.13853c3.14827,1.91395 5.38551,4.2772 7.98153,6.87597c14.96589,14.98178 17.17938,35.7796 13.18369,55.75805c-1.91857,9.40832 -7.38862,17.9793 -14.91147,23.83617c1.91177,0.18399 3.82412,0.33766 5.75381,0.1585c4.19723,-0.38968 7.63841,-0.48569 11.80883,0.5652c5.94561,1.49822 12.07321,4.44892 17.50828,7.18667c3.78439,1.90627 7.87763,3.18658 11.70342,5.11299c6.24367,4.64667 15.76865,7.57324 20.27278,14.2504c6.57216,9.74293 4.48441,24.79744 0.21076,34.86102c-1.74451,4.02233 -4.05896,7.23092 -6.83236,10.02965c0.02245,0.15035 0.0345,0.31192 0.0345,0.48555c0,2.5 -2.5,2.5 -2.5,2.5l-0.78188,-0.03833c-1.95102,1.6076 -4.06799,3.11158 -6.32315,4.61295c-11.25439,7.49264 -24.07813,10.92994 -37.64862,10.91321c-3.54056,0.70811 -6.95202,0.14031 -10.5,0.5c-3.86441,0.39177 -7.66632,1.65148 -11.54015,2.00365c-1.80499,0.16409 -3.49632,0.06695 -5.22374,0.1576c0.01149,0.11113 0.01754,0.228 0.01754,0.35093c0,2.5 -2.5,2.5 -2.5,2.5c-6.90649,-0.02174 -14.28995,-0.02047 -21.2062,-0.50852c-4.56804,-0.32235 -9.21764,-1.01618 -13.7938,-0.99148l-2.11803,-0.76393c0,0 -0.0954,-0.0477 -0.23693,-0.1431c-4.60137,3.52687 -9.57801,6.61196 -14.33071,9.53365c-3.96249,2.43592 -8.07089,4.94574 -12.38586,6.69457c-7.30891,2.92356 -13.42394,3.44173 -21.17482,2.66664c-3.17527,-0.31752 -5.90565,-0.27588 -8.91392,-1.77338c-10.71765,-5.33519 -12.6365,-18.86166 -5.70255,-27.88175c1.31676,-1.31443 2.289,-2.96319 3.68847,-4.18919c3.38385,-2.96438 7.22813,-4.78933 10.28572,-8.28152c0.17058,-0.19482 0.33372,-0.39081 0.49051,-0.58796c-4.12726,-0.76704 -8.38415,-1.04645 -12.55258,-1.815c-4.57139,-0.84285 -9.19935,-2.31324 -13.69097,-3.54279c-6.33217,-1.73338 -12.77487,-2.93106 -19,-5l-2.34862,-0.4648c0,0 -0.43945,-0.08789 -0.90902,-0.3753c-1.23175,-0.09868 -2.46635,-0.19771 -3.70002,-0.33476c-5.77245,-0.64128 -11.73694,-1.4527 -17.34964,-3.06752c-3.84467,-1.10615 -7.30183,-0.39195 -10.2878,-3.88281c-2.23236,-2.60984 -1.98791,-7.05736 -2.48095,-10.11703c-0.33539,-2.08133 -1.64361,-3.92216 -2,-6c-0.91339,-5.32537 -1.05177,-10.59607 -1.01355,-16.09499c-1.28333,-5.13334 -1.01873,-10.02738 -1.01873,-15.30546c0,-5.66773 0.25433,-10.7138 1.01798,-16.29925c0.162,-1.18492 -0.10855,-2.42287 0.1808,-3.58328c0.64862,-2.60127 1.80426,-5.40982 3.04028,-8.07083c-0.11813,-0.25517 -0.16441,-0.4403 -0.16441,-0.4403c-1.57444,-6.41291 -1.10788,-13.0174 -1.07465,-19.60634c0.01466,-2.90555 -0.29778,-4.608 1.37337,-7.31433c2.915,-4.72067 13.05864,-7.26918 17.64411,-3.67243c3.43071,2.69098 2.16305,3.75788 3.72831,6.88839c1.48669,2.97338 3.05119,6.07596 4.91648,8.84356c1.9008,3.79171 3.53052,8.25523 5.86583,11.79304c0.96527,1.46231 2.50069,2.45504 3.73966,3.69401c6.34319,6.3432 14.15719,11.38046 23.23224,11.26776h2c0,0 2.5,0 2.5,2.5zM92.33773,173.75482c-1.91135,-2.89562 -3.53986,-6.06912 -5.08352,-9.15644c-0.68927,-1.37855 -0.90093,-3.96855 -2.27169,-5.11162c-2.16571,-1.80597 -9.11443,0.1266 -10.35589,2.32757c-1.22989,2.18045 -0.62663,5.32557 -0.62663,7.68567c0,3.1095 -0.13153,6.15983 0.03341,9.18999c1.45218,-2.87835 3.41925,-6.05105 5.89221,-6.62311c1.45886,-0.33747 2.92774,0.6412 4.36495,1.06141c5.10299,1.49201 8.30981,5.93656 11.97719,9.60395c0.22082,0.22082 0.44164,0.44163 0.66246,0.66245c-1.68902,-3.10765 -3.06463,-6.57556 -4.5925,-9.63987zM121,268.5c0,0.06916 -0.00191,0.13641 -0.00563,0.2018c2.13632,0.51261 4.2729,1.03107 6.39731,1.60838c4.36483,1.18615 8.86982,2.66275 13.30903,3.45722c4.51531,0.80808 9.07898,1.13563 13.53959,2.00759c0,0 0.41844,0.08369 0.87499,0.35478c0.31608,-0.55771 0.64061,-1.12215 0.99296,-1.69285c1.34201,-2.17365 3.12483,-4.0445 4.58918,-6.13769c3.86791,-5.52887 7.07056,-10.94112 12.55258,-15.0728c0,0 2,-1.5 3.5,0.5c1.5,2 -0.5,3.5 -0.5,3.5c-5.04457,3.76213 -7.90067,8.86333 -11.44742,13.9272c-1.40292,2.00301 -3.13239,3.77764 -4.41082,5.86231c-1.57381,2.56636 -2.73848,5.04476 -4.75313,7.34849c-3.19164,3.64961 -7.1914,5.64065 -10.71428,8.71848c-1.26732,1.10723 -2.12259,2.61983 -3.31153,3.81082c-5.41562,6.34767 -3.12826,16.38223 4.29745,20.11825c2.36713,1.19095 4.58462,0.97647 7.08608,1.22661c6.97419,0.69742 12.25292,0.29555 18.82518,-2.33335c4.04054,-1.59039 7.91928,-4.02923 11.61414,-6.30544c9.01791,-5.55543 19.24951,-11.71431 25.24669,-20.77867c2.11473,-3.19628 3.92813,-6.64551 5.94102,-9.90903c1.58909,-2.57642 4.00824,-4.78319 5.44722,-7.41048c0.87676,-1.60081 1.59547,-3.30672 2.67941,-4.77519l0.73224,-0.76776c0,0 1.76776,-1.76776 3.53553,0c1.76776,1.76776 0,3.53553 0,3.53553l-0.26776,0.23224c-0.97676,1.27574 -1.53297,2.82437 -2.32059,4.22481c-1.52295,2.7079 -3.91626,4.92379 -5.55278,7.58952c-2.04038,3.32355 -3.88671,6.85433 -6.05898,10.09096c-2.13119,3.17543 -4.70922,6.02327 -7.55397,8.6272c9.13024,0.19142 18.33822,1.13886 27.50225,1.40107c0.27102,-1.45724 1.87774,-1.85892 1.87774,-1.85892l2.11605,-0.52609c2.8371,-0.55459 5.44893,-0.28228 8.28409,-0.54003c3.8439,-0.34945 7.62006,-1.61685 11.45985,-1.99635c3.55815,-0.35167 6.96344,0.20731 10.5,-0.5c12.76491,-0.01532 24.76255,-3.01819 35.35138,-10.08679c0.94128,-0.62835 1.85939,-1.25311 2.75034,-1.88512c-2.41808,-0.65018 -4.78459,-1.4287 -7.2316,-2.45315c-2.9327,-2.85879 -5.6508,-6.30151 -6.97969,-10.25065c-0.39685,-1.17935 -0.25547,-2.48417 -0.55928,-3.69084c-0.70389,-2.79577 -1.82079,-5.44785 -2.07263,-8.39926c-0.92313,-10.81826 4.40763,-21.35471 11.06728,-29.3468c0,0 0.45918,-0.55102 1.18079,-0.81681c-0.70231,-0.45993 -1.39534,-0.94196 -2.07457,-1.45611c-3.70086,-1.83552 -7.62781,-3.06496 -11.29658,-4.887c-5.1404,-2.55292 -10.87637,-5.42242 -16.49172,-6.81334c-4.56442,-1.13061 -8.3141,-0.42818 -12.89737,-0.42628c-2.87641,0.00119 -5.62786,-0.50778 -8.5,-0.5c0,0 -0.84874,0 -1.55716,-0.49453c-2.00503,0.99471 -4.10079,1.81124 -6.26783,2.42524c-4.91719,1.39323 -10.00504,0.7436 -14.99778,1.08656c-3.56089,0.24461 -6.96084,1.49485 -10.5,2c-10.59766,0.01812 -21.65103,-0.70496 -31.60877,-4.67375c-2.43845,-0.97188 -5.50583,-1.96344 -7.88141,-3.46919c-0.55966,0.4497 -1.19676,0.57712 -1.19676,0.57712c-3.32889,0.65072 -7.6143,1.53149 -10.99029,1.54855c-7.19286,0.03635 -14.23495,-3.02597 -21.22174,-4.67607c-0.99875,0.76137 -2.31883,0.32134 -2.31883,0.32134c-1.78976,-0.61992 -3.74306,-0.5838 -5.60988,-0.90399c-2.07784,-0.35638 -3.92073,-1.65207 -6,-2c-1.97258,-0.33007 -4.02705,0.32781 -6,0c-4.603,-0.76481 -8.6748,-3.20313 -12.69793,-5.22193c-1.01448,-0.50906 -2.24846,-0.52564 -3.21595,-1.11917c-0.31248,-0.1917 -3.99527,-3.9007 -4.45343,-4.35886c-3.33334,-3.33334 -6.66666,-6.66666 -10,-10c-3.21765,-3.21765 -5.8833,-6.69092 -10.02281,-8.39605c-0.58106,-0.23935 -1.00936,-0.99722 -1.63505,-0.93859c-0.43748,0.04099 -0.4065,0.78027 -0.64102,1.15185c-0.57001,0.90312 -1.24508,1.74041 -1.77108,2.66985c-1.41384,2.49824 -2.72205,5.06332 -3.85257,7.70189c-3.6292,8.47038 -3.8097,16.9357 -3.8097,26.04329c0,5.09968 -0.25655,9.74328 0.98127,14.69454c0.03099,5.46777 0.13259,10.60619 0.98645,15.90501c0.33539,2.08133 1.64361,3.92216 2,6c0.40779,2.37758 0.01008,5.70372 1.51905,7.88297c1.3315,1.92294 2.54215,0.73889 4.41369,1.04977c1.14002,0.18937 2.18678,0.7519 3.29852,1.06742c10.04112,2.84969 20.93007,1.67545 30.70148,4.93258c0.86652,-0.01076 1.73303,-0.02152 2.59955,-0.03228h1c0,0 2.5,0 2.5,2.5zM109.81433,196.37338c0.14113,0.08219 0.28875,0.14938 0.44083,0.20634c-0.57895,-0.39614 -1.15047,-0.80711 -1.71457,-1.23189c0.38383,0.39387 0.79821,0.74863 1.27374,1.02555zM303.17055,233.3269c-5.73426,6.88065 -10.8563,16.23915 -9.93272,25.6532c0.26371,2.68801 1.29404,5.04836 1.92737,7.60074c1.07806,4.3447 2.26391,7.72532 5.46103,11.05851c3.17328,1.18428 6.21417,1.98699 9.44143,2.68487c2.84753,-2.6125 5.21073,-5.62189 6.88448,-9.58257c3.70281,-8.5503 5.70997,-21.73677 0.21076,-30.13897c-1.15911,-1.77099 -3.76328,-3.13726 -5.41289,-4.37623c-2.53382,-1.90306 -5.27376,-3.36986 -7.97993,-4.93278c0.17467,1.10422 -0.59951,2.03324 -0.59951,2.03324zM218.25501,207.71659l1.09408,-1.70951c1.00254,-2.20559 1.95638,-4.09909 2.53014,-6.33343c-2.79248,0.46517 -5.6009,0.36773 -8.52711,0.06264c-0.24336,-0.07994 -0.48739,-0.15945 -0.73184,-0.23898c-1.75374,3.4484 -4.1588,6.41997 -6.91751,9.13701c3.5154,0.7173 7.14531,1.06576 10.54677,1.41037c0.58183,-0.00076 1.17297,-0.00141 1.77101,-0.00485c-0.50036,-1.14754 0.23446,-2.32325 0.23446,-2.32325zM227.08468,199.2388c-0.61359,3.2611 -1.81611,5.82847 -3.18376,8.8373l-1.12264,1.82897c3.62483,-0.22133 7.2684,-0.80051 10.43646,-2.32793c4.47631,-2.15817 6.44935,-9.43129 1.4099,-11.99442c-2.13977,-1.08831 -5.3118,1.15914 -7.60635,2.43308c0.17131,0.64594 0.06639,1.22301 0.06639,1.22301zM200.21409,206.92306c2.99759,-2.65645 5.78479,-5.59134 7.66257,-9.09641c-2.19915,-0.90378 -4.27869,-2.04668 -6.01942,-3.7673c-0.39503,-0.39047 -0.78716,-0.8358 -1.18028,-1.31601c-2.40915,3.39531 -5.32811,4.95677 -9.8015,6.59442c1.76817,2.46937 3.71044,5.09518 6.42919,6.49964c0.91565,0.47301 1.86677,0.88647 2.84438,1.24994zM188.33443,194.91988l0.68621,-0.22777c4.19869,-1.52628 6.37564,-2.46646 8.41705,-6.15434c-1.29195,-1.58884 -2.68822,-3.00763 -4.29715,-3.69817c-1.58143,-0.67873 -4.88861,0.02464 -6.51678,0.18959l-0.63073,0.49848c0,0 -0.35101,0.1755 -0.84442,0.24837c0.03281,3.37375 1.02605,6.23649 2.84266,9.2965c0.20198,-0.10559 0.34315,-0.15266 0.34315,-0.15266zM185.84084,180.17464l0.2854,-0.12065c2.63127,-0.26 6.47347,-0.85672 8.98322,0.18959c4.3022,1.79359 7.17439,7.12211 10.2833,10.28024c2.37143,2.40898 5.92959,3.27967 9.00512,4.32306c3.30392,0.31097 6.44396,0.31293 9.59867,-0.89588c4.15481,-1.59203 7.84868,-5.16914 12.62882,-2.95054c8.09344,3.75641 7.23343,13.78411 1.44958,19.1242c-1.46209,1.34991 -3.22388,2.32984 -5.1532,3.04096c2.41311,-0.01586 4.81791,-0.14902 7.15324,-0.82278c12.04036,-3.47366 21.79983,-14.17363 24.22355,-26.58314c1.52131,-7.60655 2.11722,-15.35871 1.30749,-22.80929c-2.22661,7.6891 -7.3288,13.89737 -16.77271,14.0495c0,0 -0.36203,0 -0.81055,-0.13777c-2.90246,2.83291 -10.49624,4.61277 -13.62389,1.40553c-1.04841,-1.07509 -1.18444,-2.79684 -1.39435,-4.28375c-0.14663,-1.03862 0.23207,-2.08496 0.3481,-3.12744l0.92472,-0.76928c-0.1701,-0.32554 -0.27737,-0.73612 -0.27737,-1.25397c0,-0.96828 0.37503,-1.56152 0.83457,-1.925l-1.17185,-1.50131c-0.5608,-0.98777 -1.05441,-2.01642 -1.48884,-3.07832c-0.06255,2.41363 0.06699,4.91765 -0.59865,7.17457c-1.66637,5.64999 -5.96734,10.6172 -11.91988,10.82523c-3.02822,0.37852 -5.85971,0.47872 -8.88914,-0.02745c-2.31709,-0.38715 -4.6672,-0.81113 -6.77502,-1.92798c-12.5307,-6.63951 -13.5616,-23.05597 -13.64982,-35.88626c-3.21171,2.5424 -6.14936,5.51873 -9.3236,8.03103c-3.44751,4.10514 -3.57473,10.93068 -5.37944,15.97109c-0.50385,1.40722 -0.48946,3.30727 -1.73382,4.13533c-6.33302,4.21437 -7.08074,-2.27211 -8.08078,-6.27156c-1.10314,-4.41175 -1.9358,-8.58094 -2.45435,-12.82861c-1.92125,11.12036 -0.91527,21.40636 1.29688,32.58431c2.77564,8.30009 7.21165,17.35554 13.7581,23.28518c1.807,1.63674 5.62332,2.67971 7.7572,3.53653c9.22253,3.70317 19.57431,4.30767 29.39123,4.32625c0.43672,-0.06245 0.87005,-0.13567 1.30088,-0.21655c-0.2954,-0.00037 -0.58662,-0.00092 -0.87319,-0.00126c-6.97236,-0.68895 -14.76838,-1.4654 -21.05511,-4.79271c-3.80793,-2.01538 -6.38738,-5.58772 -8.84467,-8.98716c-5.19004,-7.17998 -7.18085,-13.19897 -5.16167,-22.02918c0,0 0.56215,-2.43598 2.99813,-1.87383c2.03464,0.46953 1.97768,2.24631 1.90368,2.81904zM253.75317,146.84641c1.32342,0.99611 0.74355,2.73575 0.74355,2.73575l-0.87171,2.20943c-0.83951,1.03647 -1.18248,2.41285 -1.50852,3.7062c-0.10849,0.43035 -0.87461,0.89769 -0.55812,1.20883c0.38016,0.37373 1.05804,-0.13153 1.58707,-0.19729c1.10234,0.95652 2.76617,1.51399 3.30702,2.86956c1.51654,3.80102 -2.30999,9.85782 -6.28579,10.16236c-0.15313,0.01173 -0.31478,0.00442 -0.48317,-0.01975c0.39859,0.74749 0.59957,1.57358 0.5913,2.43799c9.35583,-0.77169 11.73738,-11.42388 11.72522,-19.45955v-0.33334c0,0 0,-1.05306 0.68346,-1.79227c-2.15481,-5.75476 -5.46435,-11.1249 -10.20123,-15.85655c-0.16207,-0.16189 -0.32224,-0.32317 -0.48094,-0.48368c-0.45105,0.44281 -1.06928,0.71591 -1.75129,0.71591c-0.1348,0 -0.26711,-0.01067 -0.39613,-0.03121l-3.28154,-0.46879h-0.82233c-0.13649,-0.00039 -5.89855,0.2429 -6.87998,-0.50064c-0.20558,0.00036 -0.41221,0.00064 -0.62002,0.00064c-1.49958,0 -2.99464,-0.00228 -4.48611,0.00008c0.23611,0.56472 0.23611,1.08317 0.23611,1.08317c0,6.25281 0.63595,12.25499 1.32117,18.42033c0.41885,3.76862 0.73847,6.2955 2.68277,9.67266l1.1149,1.34527c0,0 0.69371,0.86715 0.57851,1.90792c1.71326,-0.10569 3.52318,-0.18705 4.97216,0.05978c-0.37398,-0.39536 -0.679,-0.76623 -0.88162,-1.0714c-2.99042,-4.50403 -1.92558,-13.10131 -1.65979,-18.25077c0.10931,-2.11765 0.49004,-6.24862 2.6252,-7.3597c1.42156,-0.73974 3.25937,0.15987 4.74829,0.75246c3.04908,1.21354 3.7299,3.80437 4.25157,6.53659zM239.93566,171.27961c-0.35746,1.08161 -1.50719,1.5415 -1.50719,1.5415l-0.11444,-1.34444c-0.15616,1.0813 -1.20096,2.5351 -0.37959,3.25548c0.30204,0.2649 0.80264,-0.04106 1.20435,-0.04683c2.11513,-0.03038 5.30488,-0.01171 6.218,-2.52704c0.31691,-0.87298 -0.46404,-0.85413 -1.02612,-0.87608c-1.45304,-0.05674 -2.92487,-0.03372 -4.39501,-0.00259zM195.33334,140.16659c-0.01386,12.84144 0.20078,32.53476 16.23378,35.19895c2.676,0.44467 5.10247,0.30694 7.77754,-0.02745c4.35126,0.24182 7.47874,-5.28919 7.66018,-9.32685c0.30651,-6.82105 1.7284,-13.85727 1.33334,-20.68931c-0.19907,-3.44261 -1.43152,-6.8877 -2.26352,-10.21567l-0.21487,-1.26139c-5.24245,0.14341 -10.46127,0.49835 -15.69878,1.37112c-5.27058,0.87828 -10.27166,1.52663 -14.9983,4.03926c0.17064,0.4938 0.17064,0.91134 0.17064,0.91134z" fill="#000000"/><path d="M303.76385,231.24405c2.70617,1.56292 5.46449,3.03083 7.99831,4.93389c1.64961,1.23897 4.26971,2.61236 5.42882,4.38335c5.49921,8.4022 3.492,21.67145 -0.21081,30.22175c-1.67375,3.96068 -4.05846,6.97825 -6.90598,9.59074c-3.22726,-0.69789 -6.28837,-1.50208 -9.46165,-2.68636c-3.19712,-3.33319 -4.40603,-6.72799 -5.48408,-11.07269c-0.63333,-2.55237 -1.67559,-4.93528 -1.93931,-7.62329c-0.92359,-9.41405 4.23909,-18.83324 9.97335,-25.71389c0,0 0.77603,-0.92929 0.60136,-2.03351z" data-paper-data="{&quot;noHover&quot;:false,&quot;origItem&quot;:[&quot;Path&quot;,{&quot;applyMatrix&quot;:true,&quot;segments&quot;:[[[606.34111,466.6538],[0,0],[-11.46851,13.76131]],[[586.47567,517.96019],[-1.84717,-18.8281],[0.52743,5.37602]],[[590.3304,533.16167],[-1.26665,-5.10475],[2.15611,8.6894]],[[601.25246,555.27868],[-6.39424,-6.66637],[6.34656,2.36857]],[[620.13532,560.64843],[-6.45451,-1.39578],[5.69505,-5.22499]],[[633.90427,541.48328],[-3.3475,7.92136],[7.40562,-17.1006]],[[634.32579,481.20534],[10.99841,16.8044],[-2.31821,-3.54198]],[[623.5,472.45288],[3.29923,2.47794],[-5.06763,-3.80612]],[[607.54014,462.58732],[5.41235,3.12584],[0.34934,2.20843]]],&quot;closed&quot;:true}]}" fill="#980000"/><path d="M96.96442,183.43117c-0.22082,-0.22082 -0.44171,-0.44157 -0.66253,-0.66239c-3.66738,-3.66738 -6.93203,-8.10445 -12.03502,-9.59646c-1.43721,-0.42021 -2.83318,-1.45177 -4.29204,-1.1143c-2.47296,0.57206 -4.53079,3.78143 -5.98297,6.65978c-0.16494,-3.03016 -0.04139,-6.1152 -0.04139,-9.22469c0,-2.3601 -0.59162,-5.53096 0.63827,-7.71141c1.24146,-2.20096 8.22631,-4.15087 10.39202,-2.3449c1.37076,1.14307 1.59799,3.73497 2.28726,5.11352c1.54366,3.08732 3.20503,6.32682 5.11638,9.22244c1.52787,3.06431 2.89101,6.55076 4.58003,9.65841z" data-paper-data="{&quot;noHover&quot;:false,&quot;origItem&quot;:[&quot;Path&quot;,{&quot;applyMatrix&quot;:true,&quot;segments&quot;:[[[184.67545,347.50963],[3.05574,6.12862],[-3.8227,-5.79124]],[[174.50842,329.19676],[3.08732,6.17464],[-1.37855,-2.75709]],[[169.96503,318.97353],[2.74152,2.28614],[-4.33141,-3.61194]],[[149.25325,323.62866],[2.48292,-4.40193],[-2.45978,4.36091]],[[148,339],[0,-4.7202],[0,6.21899]],[[148.06681,357.37998],[-0.32988,-6.06032],[2.90436,-5.7567]],[[159.85124,344.13376],[-4.94592,1.14411],[2.91772,-0.67494]],[[168.58114,346.25658],[-2.87442,-0.84042],[10.20598,2.98402]],[[192.53553,365.46447],[-7.33477,-7.33477],[0.44164,0.44164]],[[193.86045,366.78938],[-0.44164,-0.44164],[-3.37804,-6.21531]]],&quot;closed&quot;:true}]}" fill="#ff0000"/><path d="M118.45164,266.0127l-1.00004,-0.00016c-0.86652,0.01076 -1.73313,0.02112 -2.59964,0.03188c-9.77141,-3.25714 -20.66145,-2.08864 -30.70257,-4.93833c-1.11173,-0.31552 -2.15858,-0.87873 -3.2986,-1.0681c-1.87153,-0.31088 -3.08226,0.87248 -4.41376,-1.05045c-1.50897,-2.17925 -1.11149,-5.50892 -1.51928,-7.8865c-0.35639,-2.07784 -1.66462,-3.9213 -2.00001,-6.00263c-0.85386,-5.29882 -0.95485,-10.44397 -0.98584,-15.91174c-1.23781,-4.95126 -0.98,-9.60063 -0.98,-14.70031c0,-9.10759 0.1843,-17.58244 3.8135,-26.05282c1.13052,-2.63858 2.4404,-5.20657 3.85424,-7.70481c0.526,-0.92944 1.20173,-1.76778 1.77174,-2.6709c0.23453,-0.37158 0.20383,-1.11129 0.64131,-1.15228c0.62569,-0.05863 1.13734,0.75447 1.71841,0.99382c4.13951,1.70513 6.8055,5.17787 10.02315,8.39552c3.33334,3.33334 6.66746,6.6654 10.0008,9.99873c0.45816,0.45816 4.14135,4.16651 4.45383,4.3582c0.96749,0.59353 2.11524,0.55944 3.12972,1.0685c4.02312,2.0188 8.09559,4.45602 12.69859,5.22083c1.97295,0.32781 4.02865,-0.33193 6.00123,-0.00186c2.07927,0.34793 3.92294,1.64252 6.00078,1.9989c1.86683,0.32019 3.82142,0.28237 5.61118,0.9023c0,0 1.321,0.43892 2.31975,-0.32245c6.9868,1.6501 14.03806,4.704 21.23092,4.66764c3.37599,-0.01707 7.67319,-0.90402 11.00208,-1.55474c0,0 0.63876,-0.12799 1.19842,-0.5777c2.37557,1.50575 5.45269,2.49519 7.89114,3.46706c9.95774,3.96878 21.05247,4.70644 31.65013,4.68832c3.53916,-0.50515 6.94315,-1.75075 10.50404,-1.99536c4.99274,-0.34296 10.08433,0.31227 15.00152,-1.08095c2.16705,-0.614 4.26317,-1.42989 6.2682,-2.42459c0.70842,0.49453 1.55757,0.49528 1.55757,0.49528c2.87214,-0.00778 5.62487,0.50378 8.50128,0.50259c4.58328,-0.0019 8.33422,-0.70132 12.89864,0.42929c5.61536,1.39092 11.35312,4.26615 16.49352,6.81907c3.66877,1.82205 7.59642,3.05475 11.29728,4.89027c0.67922,0.51415 1.37239,0.99695 2.0747,1.45688c-0.72161,0.26579 -1.18075,0.81708 -1.18075,0.81708c-6.65965,7.9921 -11.99013,18.54217 -11.067,29.36043c0.25185,2.95141 1.36814,5.60733 2.07204,8.4031c0.30381,1.20667 0.16208,2.51312 0.55893,3.69247c1.32889,3.94914 4.04604,7.3954 6.97873,10.25419c2.44701,1.02445 4.81349,1.80305 7.23157,2.45323c-0.89094,0.63201 -1.80939,1.25781 -2.75067,1.88616c-10.58883,7.0686 -22.59126,10.08171 -35.35616,10.09703c-3.53656,0.70731 -6.94379,0.15127 -10.50195,0.50294c-3.83979,0.3795 -7.61935,1.65114 -11.46325,2.00059c-2.83516,0.25775 -5.44991,-0.01157 -8.28701,0.54303l-2.11705,0.52702c0,0 -1.60815,0.40291 -1.87917,1.86014c-9.16403,-0.26221 -18.38835,-1.20063 -27.51858,-1.39204c2.84475,-2.60393 5.38262,-5.54283 7.51381,-8.71825c2.17227,-3.23663 4.00948,-6.76081 6.04986,-10.08436c1.63653,-2.66573 4.02296,-4.8739 5.54592,-7.5818c0.78762,-1.40044 1.34092,-2.94455 2.31768,-4.22029l0.26758,-0.2319c0,0 1.76613,-1.76457 -0.00163,-3.53234c-1.76776,-1.76776 -3.44577,0.04404 -3.44577,0.04404l-0.73283,0.76891c-1.08393,1.46846 -1.80637,3.18017 -2.68313,4.78098c-1.43897,2.6273 -3.86583,4.84231 -5.45493,7.41874c-2.01289,3.26352 -3.83628,6.71938 -5.95101,9.91566c-5.99717,9.06436 -16.25493,15.22842 -25.27284,20.78385c-3.69486,2.27621 -7.58148,4.71383 -11.62201,6.30421c-6.57226,2.6289 -11.86167,3.02691 -18.83586,2.32949c-2.50145,-0.25014 -4.72267,-0.03772 -7.0898,-1.22867c-7.4257,-3.73601 -9.72142,-13.77695 -4.3058,-20.12462c1.18894,-1.19099 2.11299,-2.77617 3.38031,-3.8834c3.52289,-3.07784 7.52132,-5.07009 10.71296,-8.7197c2.01465,-2.30372 3.11186,-4.70833 4.68567,-7.27469c1.27842,-2.08467 3.00701,-3.86016 4.40992,-5.86317c3.54675,-5.06387 6.39912,-10.16922 11.44369,-13.93135c0,0 1.99478,-1.50791 0.49478,-3.50791c-1.5,-2 -3.40895,-0.54084 -3.40895,-0.54084c-5.48202,4.13168 -8.69159,9.53127 -12.55949,15.06014c-1.46436,2.09319 -3.24878,3.96202 -4.59079,6.13567c-0.35235,0.5707 -0.75311,1.19986 -1.06919,1.75758c-0.45655,-0.2711 -0.8756,-0.35552 -0.8756,-0.35552c-4.46061,-0.87195 -9.02961,-1.20734 -13.54492,-2.01542c-4.43921,-0.79447 -8.94725,-2.27771 -13.31208,-3.46386c-2.12441,-0.57731 -4.26184,-1.0983 -6.39816,-1.61091c0.00372,-0.06539 0.00559,-0.13277 0.00559,-0.20193c0,-2.5 -2.5006,-2.50209 -2.5006,-2.50209z" data-paper-data="{&quot;noHover&quot;:false,&quot;origItem&quot;:[&quot;Path&quot;,{&quot;applyMatrix&quot;:true,&quot;segments&quot;:[[[242,537],[0,-5],[0,0.13833]],[[241.98873,537.40361],[0.00744,-0.13078],[4.27264,1.02522]],[[254.78334,540.62038],[-4.24882,-1.15463],[8.72966,2.37231]],[[281.4014,547.53481],[-8.87842,-1.58893],[9.03061,1.61616]],[[308.48058,551.54998],[-8.92122,-1.7439],[0,0]],[[310.23055,552.25955],[-0.9131,-0.5422],[0.63215,-1.11543]],[[312.21647,548.87385],[-0.7047,1.1414],[2.68401,-4.34731]],[[321.39484,536.59847],[-2.92871,4.18637],[7.73581,-11.05774]],[[346.5,506.45288],[-10.96404,8.26335],[0,0]],[[353.5,507.45288],[-3,-4],[3,4]],[[352.5,514.45288],[0,0],[-10.08913,7.52425]],[[329.60516,542.30729],[7.0935,-10.12775],[-2.80583,4.00602]],[[320.78353,554.03191],[2.55685,-4.16934],[-3.14763,5.13272]],[[311.27727,568.72889],[4.02929,-4.60745],[-6.38329,7.29922]],[[289.8487,586.16586],[7.04577,-6.15568],[-2.53465,2.21445]],[[283.22564,593.78749],[2.37789,-2.38198],[-10.83124,12.69533]],[[291.82053,634.02398],[-14.85141,-7.47202],[4.73427,2.3819]],[[305.99269,636.47721],[-5.00291,-0.50029],[13.94838,1.39484]],[[343.64305,631.8105],[-13.14453,5.25781],[8.08107,-3.18077]],[[366.87134,619.19963],[-7.38973,4.55241],[18.03581,-11.11087]],[[417.36471,577.64229],[-11.99435,18.12872],[4.22947,-6.39257]],[[429.24675,557.82423],[-4.02577,6.52704],[3.17819,-5.15285]],[[440.14118,543.00326],[-2.87794,5.2546],[1.75352,-3.20162]],[[445.5,533.45288],[-2.16787,2.93693],[0,0]],[446.96447,531.91735],[[454.03553,531.91735],[-3.53553,-3.53553],[3.53553,3.53553]],[454.03553,538.98841],[[453.5,539.45288],[0,0],[-1.95352,2.55148]],[[448.85882,547.90251],[1.57524,-2.80088],[-3.0459,5.41579]],[[437.75325,563.08154],[3.27306,-5.33146],[-4.08076,6.6471]],[[425.63529,583.26347],[4.34454,-6.47326],[-4.26238,6.35085]],[[410.52735,600.51787],[5.6895,-5.20786],[18.26048,0.38283]],[[465.53185,603.32],[-18.32806,-0.52442],[0.54203,-2.91447]],[469.28732,599.60217],[[473.51942,598.54998],[0,0],[5.6742,-1.10918]],[[490.0876,597.46992],[-5.67033,0.5155],[7.6878,-0.69891]],[[513.00731,593.47721],[-7.67958,0.75901],[7.11631,-0.70334]],[[534.00731,592.47721],[-7.07312,1.41462],[25.52981,-0.03064]],[[604.71006,572.30364],[-21.17766,14.1372],[1.88255,-1.2567]],[[610.21073,568.53339],[-1.78189,1.26402],[-4.83616,-1.30036]],[[595.74754,563.62709],[4.89402,2.0489],[-5.86539,-5.71759]],[[581.78816,543.12578],[2.65778,7.89828],[-0.7937,-2.35869]],[[580.6696,535.74409],[0.60761,2.41334],[-1.40779,-5.59155]],[[576.52433,518.94557],[0.50369,5.90282],[-1.84625,-21.63652]],[[598.65889,460.25196],[-13.3193,15.98419],[0,0]],[[601.02047,458.61834],[-1.44321,0.53158],[-1.40461,-0.91986]],[[596.87134,455.70613],[1.35845,1.0283],[-7.40172,-3.67104]],[[574.27819,445.93212],[7.33754,3.64409],[-10.28081,-5.10583]],[[541.29474,432.30544],[11.23071,2.78184],[-9.12884,-2.26121]],[[515.5,431.45288],[9.16655,-0.0038],[-5.75281,0.00238]],[[498.5,430.45288],[5.74429,-0.01555],[0,0]],[[495.38568,429.46382],[1.41684,0.98906],[-4.01006,1.98941]],[[482.85001,434.3143],[4.33409,-1.22801],[-9.83438,2.78645]],[[452.85445,436.48742],[9.98548,-0.68592],[-7.12179,0.48921]],[[431.85445,440.48742],[7.07832,-1.0103],[-21.19531,0.03625]],[[368.6369,431.13992],[19.91549,7.93757],[-4.8769,-1.94375]],[[352.87409,424.20154],[4.75115,3.0115],[-1.11933,0.89941]],[[350.48058,425.35578],[0,0],[-6.65779,1.30145]],[[328.5,428.45288],[6.75198,-0.03413],[-14.38571,0.07271]],[[286.05652,419.10074],[13.97359,3.30021],[-1.99749,1.52274]],[[281.41886,419.74342],[0,0],[-3.57953,-1.23985]],[[270.19909,417.93544],[3.73365,0.64038],[-4.15569,-0.71277]],[[258.19909,413.93544],[4.15855,0.69586],[-3.94515,-0.66015]],[[246.19909,413.93544],[3.9459,0.65563],[-9.20601,-1.52963]],[[220.80324,403.49158],[8.04625,4.03761],[-2.02896,-1.01813]],[[214.37134,401.25325],[1.93498,1.18706],[-0.62495,-0.38339]],[[205.46447,392.53553],[0.91632,0.91632],[-6.66667,-6.66667]],[[185.46447,372.53553],[6.66667,6.66667],[-6.4353,-6.4353]],[[165.41886,355.74342],[8.27902,3.41026],[-1.16213,-0.4787]],[[162.14876,353.86624],[1.25138,-0.11725],[-0.87497,0.08198]],[[160.86671,356.16994],[0.46905,-0.74316],[-1.14002,1.80623]],[[157.32455,361.50963],[1.052,-1.85888],[-2.82768,4.99648]],[[149.6194,376.91342],[2.26104,-5.27715],[-7.25841,16.94076]],[[142,429],[0,-18.21518],[0,10.19936]],[[143.96254,458.38908],[-2.47563,-9.90251],[0.06197,10.93555]],[[145.93544,490.19909],[-1.70773,-10.59764],[0.67078,4.16267]],[[149.93544,502.19909],[-0.71277,-4.15569],[0.81559,4.75515]],[[152.97353,517.96503],[-3.01794,-4.3585],[2.66299,3.84588]],[[161.80091,520.06456],[-3.74307,-0.62176],[2.28004,0.37874]],[[168.39794,522.1994],[-2.22347,-0.63103],[20.08225,5.69939]],[[229.80091,532.06456],[-19.54282,-6.51427],[1.73303,-0.02152]],[[235,532],[-1.73303,0.02152],[0,0]],[237,532]],&quot;closed&quot;:true}]}" fill="#ff0000"/><path d="M306.65873,229.98554c0.99348,-10.24649 5.40518,-19.7439 11.36105,-27.89162c1.86855,-2.5562 4.58849,-4.19098 6.80218,-6.4053c3.18228,-3.18316 11.16251,-10.74181 16.26753,-6.35749c0.997,0.85625 0.58024,2.5641 0.91127,3.83597c0.41978,1.61292 0.94943,3.19528 1.4135,4.79604c0.33738,3.59526 1.30504,7.6208 1.09158,11.21384c-0.30506,5.13502 -2.4293,9.48152 -3.91483,14.27258c-2.7492,8.86652 -8.15513,16.67979 -15.30966,22.65515c0,0 -0.02839,0.02349 -0.08109,0.06132c0.9452,4.1571 -1.00425,9.17487 -4.18549,11.86578c-0.49937,0.42241 -1.06476,0.80071 -1.68007,1.1381c0.01331,0.29612 0.0279,0.55362 0.04604,0.76072c-0.37068,11.00093 -1.10854,23.4513 -6.49339,33.32105c-3.74175,6.85819 -9.75855,12.39281 -15.49559,17.6872c-0.08828,0.98742 -0.84247,1.69042 -0.84247,1.69042l-0.97562,0.89755c-1.6639,1.27245 -3.53877,2.45563 -5.59312,2.86471c-3.38262,0.67355 -7.77236,0.62049 -9.8736,-2.75593c-0.3145,-0.50535 -0.67647,-5.10846 -0.7621,-6.07572c-0.35427,-4.00191 -0.55179,-8.75671 0.14406,-12.72999c0.28733,-1.6406 0.95777,-3.21451 1.10088,-4.87392c2.30323,-12.899 9.57882,-24.05248 19.12975,-32.9684c1.1798,-1.10138 2.86514,-2.48785 4.73967,-3.75894c-0.47549,-1.62075 -1.00086,-3.5623 -0.90768,-4.02011c0.3757,-1.84616 2.41875,-3.68366 4.03185,-4.85515c-1.28437,-4.64784 -1.35783,-9.58444 -0.92465,-14.36787z" fill="#000000"/></g></g></svg>