<svg version="1.1" xmlns="http://www.w3.org/2000/svg" xmlns:xlink="http://www.w3.org/1999/xlink" width="200.80959" height="358.4695" viewBox="0,0,200.80959,358.4695"><g transform="translate(-136.91774,-6.70571)"><g data-paper-data="{&quot;isPaintingLayer&quot;:true}" fill-rule="nonzero" stroke-linecap="butt" stroke-linejoin="miter" stroke-miterlimit="10" stroke-dasharray="" stroke-dashoffset="0" style="mix-blend-mode: normal"><path d="M297.75001,89c0,44.32085 -29.21342,80.25 -65.25,80.25c-36.03658,0 -65.25,-35.92915 -65.25,-80.25c0,-44.32085 29.21342,-80.25 65.25,-80.25c36.03658,0 65.25,35.92915 65.25,80.25z" fill="#ff0000" stroke="#000000" stroke-width="3"/><path d="M193.75001,45.25c0,-1.38071 1.11929,-2.5 2.5,-2.5c1.38071,0 2.5,1.11929 2.5,2.5c0,1.38071 -1.11929,2.5 -2.5,2.5c-1.38071,0 -2.5,-1.11929 -2.5,-2.5z" fill="#000000" stroke="none" stroke-width="0.5"/><path d="M259.75001,44.75c0,-1.38071 1.11929,-2.5 2.5,-2.5c1.38071,0 2.5,1.11929 2.5,2.5c0,1.38071 -1.11929,2.5 -2.5,2.5c-1.38071,0 -2.5,-1.11929 -2.5,-2.5z" fill="#000000" stroke="none" stroke-width="0.5"/><path d="M276.66668,111.5c0,2.5 -2.5,2.5 -2.5,2.5h-0.66667c-7.79656,0 -15.56754,-0.67985 -23.33334,-0.66666c-12.78797,0 -25.54196,1 -38.33333,1c-6.96256,0 -14.70863,0.65782 -21.45724,-1.46163c-1.82063,-0.57178 -3.43989,-1.65623 -5.19422,-2.40718c0,0 -2.29787,-0.98479 -1.31306,-3.28266c0.9848,-2.29787 3.28266,-1.31307 3.28266,-1.31307c1.62673,0.69796 3.11884,1.72313 4.80577,2.25949c6.17418,1.96305 13.50597,1.20504 19.8761,1.20504c12.79105,0 25.54516,-1 38.33333,-1c7.77104,0.0119 15.53356,0.66666 23.33334,0.66666h0.66667c0,0 2.5,0 2.5,2.5z" fill="#000000" stroke="none" stroke-width="0.5"/><path d="M173.67787,54.85413c0.00516,-1.04102 -0.41286,-2.16206 0.02892,-3.0945c0.06431,-0.13573 0.13302,-0.26873 0.20562,-0.39928l-0.08657,-0.03246l0.97951,-2.61202c0.34031,-0.97631 1.269,-1.67684 2.36131,-1.67684c0.21407,0 0.42186,0.0269 0.62016,0.07752c1.10281,-3.95533 3.58664,-6.89393 5.47529,-10.69191c1.90581,-3.83248 4.16126,-6.44341 7.05849,-9.57145c2.47728,-2.67463 4.16458,-6.19777 6.74496,-8.74858c3.69964,-3.65724 8.72612,-4.72362 13.54439,-5.92024c0.57873,-0.58159 1.34772,-0.75247 1.34772,-0.75247c7.32226,-1.61851 14.61326,-2.90511 22.01119,-3.86927c0.42303,-0.3282 0.95426,-0.52359 1.53114,-0.52359h2.77672c0.42834,-0.04831 0.85711,-0.09556 1.28636,-0.14176c0.242,-0.04235 0.48156,-0.07725 0.70912,-0.07531c0.36739,-0.0385 0.73514,-0.07622 1.10326,-0.11317l0.12454,0.05556v-0.05865h2.66666c1.38071,0 2.5,1.11929 2.5,2.5c0,0.21842 -0.02801,0.43029 -0.08064,0.63223c1.5024,0.35759 3.72154,0.83738 4.12296,0.92729c9.00728,2.01743 15.56779,8.01669 21.8921,14.33937c4.41827,4.41714 8.65131,9.39319 11.4683,14.98306c0.71272,1.44194 1.32625,2.94833 1.8583,4.49977c0.45857,-0.53947 1.14213,-0.88173 1.90564,-0.88173c1.09231,0 2.02101,0.70054 2.36132,1.67684l0.9795,2.61201l-0.09845,0.03692l0.19224,0.27285c0.30894,2.94939 0.28945,5.46665 0.15681,8.25867c0.20524,1.57288 0.04207,3.24015 0.23708,4.8207l-0.06923,0.15534h0.07407v2.66667c0,1.16096 -0.79134,2.13708 -1.86405,2.41839l0.17809,1.60276c0.01274,0.10227 0.0193,0.20645 0.0193,0.31217c0,1.38071 -1.11929,2.5 -2.5,2.5c-1.18975,0 -2.1854,-0.8311 -2.43804,-1.94439l-0.65398,-2.61593l0.04257,-0.01064c-0.02646,-0.05084 -0.0524,-0.10199 -0.07779,-0.15349c-0.94476,-1.91644 -0.74079,-4.78046 -0.44032,-7.47955c-0.72025,-5.72875 -1.85679,-11.62209 -4.33517,-16.51129c-5.01585,-10.12426 -15.15215,-20.11687 -25.21165,-25.21348c-1.0387,-0.52625 -2.18494,-0.97258 -3.38534,-1.36596c0.25334,0.14745 0.50727,0.35965 0.75361,0.65526c1.60046,1.92056 -0.32009,3.52102 -0.32009,3.52102l-1.85412,1.53505c-1.45991,1.67465 -2.73479,3.50457 -4.19105,5.1824c-2.78841,3.21267 -6.44339,5.59406 -8.83254,9.11747c-0.89192,1.31536 -4.189,7.1953 -5.88605,7.4054c-1.72723,0.21384 -5.60578,-5.23337 -6.42881,-6.23295c-4.49161,-5.45519 -8.30342,-11.00973 -14.39956,-14.80792c0,0 -2.11999,-1.325 -0.795,-3.44499c1.325,-2.11999 3.445,-0.795 3.445,-0.795c5.76039,3.61052 9.50405,8.30901 13.64316,13.57845c0.75923,0.96656 2.99266,3.3878 4.08767,4.81853c0.57203,-1.20952 1.45947,-2.26095 2.22141,-3.3658c2.55498,-3.70484 6.2382,-6.16391 9.16746,-9.54919c1.54396,-1.78432 2.91908,-3.71091 4.47562,-5.48426l2.14588,-1.79829c0,0 0.83482,-0.69568 1.86232,-0.61932c-2.86464,-0.86288 -5.95334,-1.47252 -8.58239,-2.17478c-0.80146,-0.21409 -1.72311,0.06834 -2.47185,-0.28882c-0.04631,-0.0221 -0.09251,-0.04441 -0.13859,-0.06694l-0.0087,0.0348l-2.65582,-0.66395c-7.70171,0.94338 -15.26703,2.25281 -22.86535,3.9389c-0.55573,0.54745 -1.26615,0.72505 -1.26615,0.72505c-3.9041,0.97571 -8.50763,1.63094 -11.50524,4.67574c-2.48952,2.52872 -4.16675,5.95301 -6.58838,8.58475c-2.60395,2.82988 -4.55092,4.99841 -6.27484,8.42855c-1.93324,3.84663 -4.98065,6.9245 -5.44123,11.31229c-0.43267,1.95435 -0.88598,3.90438 -1.3713,5.84633l-0.65398,2.61593c-0.20582,0.90695 -0.90472,1.62661 -1.79996,1.86223c-0.04049,0.18834 -0.0867,0.37585 -0.13807,0.56251c-0.00002,0.00659 -0.00002,0.01314 -0.00001,0.01966v0.60417l0.31402,0.03925l-0.32922,2.63376c-0.13791,1.25028 -1.19778,2.22282 -2.4848,2.22282c-1.38071,0 -2.5,-1.11929 -2.5,-2.5v-3c0.00175,-1.14393 0.07696,-2.28574 0.16304,-3.42717l-0.13792,-0.88594c0,0 -0.12999,-0.90992 0.3194,-1.70511z" fill="#000000" stroke="none" stroke-width="0.5"/><path d="M285.8349,248.63974c0.16987,0.12045 0.3356,0.24237 0.49737,0.36574c0.09113,0.02156 0.183,0.04734 0.27545,0.07704c-0.21796,-0.19006 -0.40264,-0.41729 -0.54417,-0.67182c-0.06801,0.07567 -0.14422,0.15319 -0.22865,0.22904zM291.61282,253.03026c3.94089,4.39629 5.03218,11.01148 11.58788,12.20826c1.35143,0.24671 2.68188,0.79991 4.02888,0.17678c3.71805,-1.72002 2.38653,-5.05696 0.81401,-8.04225c-2.01297,-3.82147 -5.65404,-5.82505 -9.61849,-6.67194c-1.38155,0.02145 -5.5437,0.11322 -6.50591,-0.50943c-0.47184,-0.00209 -0.94369,-0.00418 -1.41553,-0.00627l-0.21969,-0.15766l-0.02426,0.12128l-2.42976,-0.48595c1.49036,0.90804 2.95625,2.44505 3.78287,3.3672zM293.25,245.19756c2.04323,0.01005 4.09051,0.20484 6.06732,0.62149c1.84064,-0.03267 3.71344,-0.19447 5.30828,-0.54226c1.01828,-0.22206 2.38078,-0.28699 2.88833,-1.19727c0.3838,-0.68834 -0.5351,-1.72089 -0.93828,-2.02547c-2.33551,-1.76438 -4.9728,-1.92991 -7.74773,-2.39238c-2.30776,-0.38461 -7.95106,-1.77638 -9.54981,0.99767c-0.71542,1.24134 -0.96806,2.6887 -1.39229,4.06456c0.11888,-0.01735 0.24049,-0.02633 0.36419,-0.02633c0.11851,0 0.2351,0.00824 0.34921,0.02419l3.84139,0.48018c0.2698,-0.00145 0.5396,-0.00292 0.8094,-0.00437zM285.04127,254.34453c-0.46402,-0.27078 -0.92068,-0.55119 -1.33976,-0.87641l-0.94907,-0.40675c-0.23345,0.55767 -0.43532,1.12452 -0.56931,1.71057c-0.80073,3.50208 -0.70202,7.042 -0.93795,10.58096c-0.37336,5.60049 -1.25811,9.19173 1.64856,14.05842c1.45934,2.44338 2.93228,4.72842 5.85627,5.28624c0.8318,-0.18443 2.71603,-0.52967 3.47928,-0.9843c1.0831,-0.64515 0.54931,-1.46631 0.52072,-2.5157c-0.05623,-2.06409 0.29344,-4.14805 0.01873,-6.19455c-0.51652,-3.84792 -2.00489,-7.82033 -3.35955,-11.42765c-1.19678,-3.18691 -2.13072,-6.72529 -4.36791,-9.23084zM283.66209,241.49184c0.38043,-1.32734 0.76803,-2.64898 1.55981,-3.75605c3.25008,-4.54427 9.8056,-3.77647 14.45019,-3.00234c5.33637,0.88943 15.74077,3.44777 12.31399,11.58215c-0.69726,1.65513 -2.23113,2.6854 -4.06833,3.32659c1.80171,1.40154 3.35257,3.17592 4.53868,5.37989c2.93522,5.4541 3.42323,12.07456 -3.18599,14.95775c-4.36543,1.90436 -9.5658,0.22976 -13.29398,-2.64459c1.05315,3.5237 1.76319,7.09706 1.77355,10.86233c0.0016,0.58395 0.03719,5.85776 -0.12829,6.29057c-1.54559,4.04233 -5.21478,4.52225 -8.87171,5.20943c-6.29602,-1.28361 -11.61727,-7.04187 -12.95489,-13.52723c-0.73332,-3.55546 0.22379,-7.58917 0.45972,-11.12811c0.25466,-3.82 0.18372,-7.6422 1.06205,-11.41904c0.28658,-1.2323 0.90924,-2.36273 1.46731,-3.51116c-0.02249,-0.13481 -0.0342,-0.27326 -0.0342,-0.41446c0,-0.79536 0.37142,-1.50397 0.95027,-1.96185c0.02328,-0.09837 0.0444,-0.19736 0.06318,-0.29706c0.30156,-1.60122 -0.68338,-3.18688 -0.97249,-4.7904c-0.88546,-4.91109 -2.10656,-10.10383 -3.47976,-14.90092c-2.25716,-13.64607 -7.09876,-26.96075 -10.00622,-40.52839c-1.68466,-7.86145 -3.35314,-16.06314 -6.37617,-23.59292c0,0 -0.92847,-2.3212 1.39272,-3.24967c2.32119,-0.92847 3.24966,1.39272 3.24966,1.39272c3.11259,7.80768 4.87765,16.25792 6.62383,24.40709c2.90402,13.55258 7.7061,26.8449 9.99378,40.47161c1.36345,4.78101 2.56622,9.94094 3.47328,14.84405z" fill="#ff0000" stroke="none" stroke-width="0.5"/><path d="M273.75,354.2535c-1.5,-2 0.5,-3.5 0.5,-3.5c1.48683,-1.09749 3.01994,-1.82021 4.5191,-2.69341c-3.10445,-3.12562 -4.21242,-8.72564 -5.8288,-12.60339c-4.49614,-10.78645 -7.73157,-22.48258 -12.95825,-32.90484c-2.09529,-4.89986 -4.72229,-9.66096 -7.38546,-14.2819c-0.75784,-1.31494 -1.60942,-3.85575 -3.51393,-4.36069c-0.80009,-0.21213 -3.37902,0.45799 -3.88196,0.54975c-0.94643,0.17267 -1.8883,0.40105 -2.84807,0.46724c-0.48236,0.03327 -1.08024,-0.49411 -1.44035,-0.17146c-0.27113,0.24292 0.65585,0.41616 0.78918,0.75489c0.19974,0.50745 0.9795,5.3503 1.01914,5.60799c1.31081,8.51965 3.75004,16.79135 5.42576,25.16993c3.44868,8.60027 3.88227,18.13229 7.86663,26.64988c0.93986,2.00919 2.03281,3.94425 2.97663,5.95158c0.53427,1.1363 1.74124,2.08248 1.74546,3.33812c0.00378,1.12469 -0.22121,2.3082 -0.68152,3.36635c0.60665,0.32117 1.19644,0.94566 1.19644,2.15994c0,2.5 -2.5,2.5 -2.5,2.5l-1.589,-0.03402c-4.95309,0.81217 -9.75007,1.19971 -14.7048,2.0255c-9.90198,0.02631 -19.80419,0.00852 -29.7062,0.00852c-6.88521,0 -14.06011,0.03202 -20.70294,-2.10086c-3.50186,-1.12438 -9.54198,-4.62102 -8.73018,-9.47352c0.59859,-3.57805 7.78734,-4.6258 10.34409,-5.35524c13.05058,-2.56273 27.14226,-4.03826 40.26267,-0.47791c1.51353,0.41071 2.99456,0.88772 4.45482,1.40782c-0.46385,-1.35853 -0.95569,-2.71207 -1.5276,-4.05085c-1.37178,-8.06795 -4.25214,-15.90518 -6.55393,-23.73644c-4.01131,-13.64746 -7.36859,-27.84669 -9.94343,-41.93901c-1.66964,0.04677 -3.16166,-0.10809 -4.06528,-0.71619c-1.30032,-0.87507 -1.37773,-2.82112 -1.92655,-4.28924c-1.05459,-2.82105 -1.38449,-5.77895 -2.05077,-8.69039c-3.22514,-14.09287 -5.13585,-28.78742 -7.5315,-43.16617c-2.54242,-17.8258 -5.95019,-35.63347 -10.10103,-53.16268c-6.91175,-0.42164 -7.74485,8.05227 -8.98335,13.80176c-0.31763,1.47456 -0.75485,6.19754 -0.98753,7.43766c-1.09749,5.84931 -3.00538,11.57491 -4.22295,17.40267c-1.21597,5.82011 -2.20726,11.63813 -3.54716,17.44433c-0.76787,3.3194 -1.46124,6.8154 -2.0037,10.35411c4.86695,0.13019 9.81398,2.03603 12.2357,5.23797c0.90542,1.19712 1.66258,2.56818 2.01374,4.02749c0.3308,1.37468 0.39808,2.8922 -0.02383,4.24171c-1.61141,5.15416 -5.24218,4.86408 -9.27917,4.48349c0.07469,0.0575 0.15014,0.11577 0.22637,0.17483c2.24313,3.62481 4.9715,7.20807 6.86178,11.0214c1.40467,2.83369 3.05428,5.98906 2.77592,9.32331c-0.5121,6.13414 -6.7147,11.50614 -12.89568,9.16144c-6.95125,-2.63689 -9.61265,-11.93375 -10.35873,-19.52847c-0.80016,2.31742 -1.58491,4.63506 -2.35228,6.9382c-1.16431,3.49447 -1.61686,6.71502 -3.96812,9.86034c-2.15748,2.8861 -6.36122,4.2019 -9.67303,4.88596c-3.59716,-0.0315 -4.40669,0.3295 -8.09981,-1.8859c-6.75045,-4.04942 -6.8227,-18.02726 -2.61301,-23.64562c2.44925,-3.26882 6.85497,-4.34318 10.58418,-4.92692c3.73981,-0.5854 7.34436,-1.17077 10.92131,-1.93587c-0.07122,-4.19565 -0.23738,-7.88994 1.8147,-11.87549c1.32505,-2.57353 3.8004,-4.18976 6.70825,-4.98081c0.58055,-4.11063 1.36264,-8.1864 2.25346,-12.05546c1.33236,-5.77353 2.31674,-11.5542 3.52468,-17.34206c1.20897,-5.79279 3.11315,-11.48517 4.2024,-17.29875c0.88606,-4.7291 1.21132,-9.54302 2.54278,-14.18839c0.04251,-0.14829 2.43105,-6.73165 2.93042,-7.37328c1.98999,-2.55693 5.11942,-3.58624 8.21989,-3.70605c-0.21842,-0.88976 -0.43874,-1.77874 -0.66095,-2.66689c0,0 -0.60634,-2.42536 1.81902,-3.0317c2.42535,-0.60634 3.03169,1.81902 3.03169,1.81902c0.44731,1.79054 0.88708,3.58428 1.31917,5.38096c0.16961,0.30267 0.27797,0.67562 0.27148,1.13347c4.30176,18.03419 7.8289,36.35888 10.45459,54.70962c2.00263,12.01164 4.4946,24.02884 6.49713,35.98184c0.65406,3.90405 0.98183,7.88845 1.9619,11.81143c0.28153,1.12691 0.72659,2.21204 0.95871,3.35017c0.11406,0.55926 -0.4065,1.40183 0.07345,1.71076c0.10013,0.06445 0.20569,0.09268 0.31523,0.09522c-0.08193,-0.47999 -0.16293,-0.95976 -0.24299,-1.4393c0,0 -0.411,-2.46598 2.05499,-2.87698c2.46598,-0.411 2.87698,2.05499 2.87698,2.05499c0.07222,0.43411 0.14522,0.86842 0.21901,1.30292c1.21076,-0.07958 2.42684,-0.10244 3.63778,-0.10244c5.48798,-0.79307 10.99047,-2.52028 16.47102,-2.99777c4.10321,-0.35749 7.54297,-0.85235 11.55954,-1.92344c1.3484,-0.35957 3.39124,-1.20084 5.44125,-1.84843c-0.15992,-2.00773 -0.28571,-4.01423 -0.29459,-6.01985v-0.5c0,0 0,-2.5 2.5,-2.5c0.76011,0 1.28912,0.23111 1.65728,0.55279c-1.1569,-2.85438 -3.70647,-4.94764 -5.3046,-7.48936c-0.17459,-0.27767 -2.11711,-5.2437 -2.26021,-5.6066c-1.77322,-10.35968 -4.61833,-20.40687 -6.54534,-30.6905c-2.53173,-13.5108 -4.79908,-26.99536 -7.49858,-40.49285c-0.16666,-0.83334 -0.33334,-1.66666 -0.5,-2.5l-0.04855,-0.99029c0,0 0,-2.5 2.5,-2.5c2.5,0 2.5,2.5 2.5,2.5l-0.04855,0.00971c0.16666,0.83334 0.33334,1.66666 0.5,2.5c2.70033,13.50166 4.96605,26.9936 7.50142,40.50715c1.90591,10.15852 4.80073,20.05598 6.45466,30.3095c1.78849,4.3949 4.59096,7.33818 6.82189,11.54242c1.61971,3.05238 1.17748,3.61588 1.73829,7.23077c0.32388,2.08767 1.48905,5.24849 -0.19995,7.16822c-0.86535,0.98356 -2.59567,0.38506 -3.86731,0.69995c-0.09552,0.02365 -0.19075,0.04831 -0.28571,0.07387c0.20368,2.32274 0.37883,4.64694 0.37673,6.96901c1.36981,8.06929 2.79429,16.18813 5.39601,23.96467c1.57814,4.71705 4.02794,8.84958 5.959,13.37901c3.32578,7.80081 6.10086,16.35346 11.14749,23.35454c1.46118,1.84085 3.8577,4.40684 4.00385,6.90408c0.03722,0.63597 -0.00469,1.23788 -0.11541,1.80426c5.75212,-1.27708 11.53299,-2.4487 17.41137,-2.93835c3.83648,-0.31957 7.8531,-0.00852 11.7062,-0.00852c3.47119,0 7.01066,-0.30364 10.42208,0.53589c1.37295,0.33787 3.15325,0.25533 4.01127,1.37914c0.92796,1.21541 0.34769,3.03849 0.52154,4.55774c-1.91242,4.98708 -3.42167,11.65689 -7.96095,15.03176c-4.90144,3.64413 -10.92453,2.31198 -16.37624,1.46607c-12.47376,-1.9355 -27.25089,0.37225 -37.73272,-8.13767l-0.20059,-0.80161c-0.54933,-0.04924 -1.14874,-0.31712 -1.6844,-1.03132zM279.86502,353.42057c1.85081,1.08988 3.47694,1.35766 5.52665,1.91668c3.75965,1.02536 7.63823,2.62032 11.53555,2.92254c5.72849,0.44421 11.50172,0.15268 17.20508,1.02311c3.94372,0.60188 9.04049,2.19201 12.62376,-0.53393c3.42965,-2.60908 4.45229,-8.22055 6.03905,-11.96824c0.77926,-0.6608 -2.36032,-0.44421 -3.72233,-0.53352c-3.89312,-0.25528 -7.91831,0.00629 -11.82278,0.00629c-11.79288,0 -23.04211,3.15728 -34.50971,5.45145c0,0 -0.19618,0.03924 -0.48865,0.04001c-0.80447,0.48312 -1.61449,0.90944 -2.41791,1.35858zM251.17848,351.43231c0,0 2.26476,0.90591 1.42533,3.16513c1.64019,-0.3875 3.46404,-1.00759 3.16112,-1.82465c-0.24128,-0.65079 -0.92408,-1.05152 -1.25454,-1.66188c-2.45538,-4.53513 -4.6386,-9.47259 -6.16434,-14.42462c-1.90969,-6.19823 -2.58946,-12.95186 -4.9924,-18.97392c-1.72032,-8.60161 -4.22912,-17.08617 -5.57424,-25.83007c-0.27917,-1.81471 -2.18603,-8.16999 -1.19168,-9.63712c1.33037,-1.96293 5.55267,-2.31288 7.71157,-2.70422c1.87449,-0.33978 4.19859,-1.05479 6.11804,-0.45025c3.83402,1.20756 4.49273,3.31402 6.48607,6.63931c2.81204,4.69102 5.45885,9.6989 7.61454,14.7181c5.23835,10.5066 8.51841,22.23497 13.04175,33.09516c1.46464,3.51649 2.35165,8.24784 4.95807,11.18894c1.44952,1.63565 6.70327,0.38121 6.23439,-2.12834c-0.1383,-0.74022 -2.85088,-3.91593 -2.99615,-4.09592c-2.77007,-3.90813 -4.32964,-7.67583 -6.27729,-11.96333c-1.53601,-3.38133 -3.67761,-6.69822 -5.06052,-10.14315c-0.3217,-0.80138 -0.17624,-1.74452 -0.51469,-2.53897c-1.95758,-4.59503 -4.44708,-8.82325 -6.041,-13.62099c-2.69964,-8.126 -4.22079,-16.59979 -5.60399,-25.03533c-0.00167,-1.89867 -0.10952,-3.79569 -0.25412,-5.69133c-0.1843,0.05897 -0.36938,0.11541 -0.55543,0.16862c-5.5671,1.59224 -10.76602,2.63831 -16.49277,3.09118c-2.11846,0.16753 -4.12242,1.0415 -6.20628,1.45802c-3.33951,0.66749 -6.94299,1.06625 -10.3227,1.54421c-0.79488,0 -1.87728,0.1253 -3.08089,0.27403c2.52721,13.77623 5.82099,27.65599 9.7431,40.99012c2.29973,7.81848 5.24449,15.69079 6.5597,23.756c1.09814,2.55391 2.12704,5.26189 3.09084,7.96395c2.14081,0.89672 4.27372,1.81343 6.4385,2.67131zM232.57636,349.66104c-12.17435,-3.33953 -25.64362,-1.95452 -37.73733,0.52209c-1.11672,0.31957 -2.23793,0.62387 -3.35017,0.9587c-0.86425,0.26018 -1.69486,0.64272 -2.57859,0.82613c-0.24169,0.05016 -0.82779,-0.36545 -0.72714,-0.14007c1.72074,3.8536 9.12891,4.39592 12.47668,4.95943c1.39849,0.2354 2.81237,0.39316 4.22845,0.47001c12.30379,0.66772 24.82841,-0.03289 37.15555,0.00469c0.11227,-0.01871 0.22447,-0.03718 0.33659,-0.05542c-0.12393,-0.434 -0.25638,-0.86187 -0.44009,-1.24989c-0.55755,-1.17765 -1.03896,-2.36982 -1.48068,-3.56967c-2.56524,-1.02982 -5.16756,-1.98107 -7.88326,-2.72601zM246.71178,355.97189c0.177,0.26353 0.52487,-0.38319 0.83202,-0.46338c0.08273,-0.0216 0.16586,-0.04128 0.24933,-0.0594c-0.40289,-0.16705 -0.8049,-0.33518 -1.20631,-0.50389c-0.0377,0.37044 -0.07086,0.73512 0.12496,1.02667zM178.42723,245.78948c0.57005,0.04124 4.38069,0.88827 5.43991,0.411c0.69037,-0.31107 0.50532,-2.63763 0.44975,-2.84291c-0.9522,-3.51696 -5.87993,-5.42553 -10.03217,-5.48366c-0.26895,2.47122 -0.4476,4.93308 -0.51016,7.3404c1.73307,0.18989 3.47754,0.49015 4.65268,0.57516zM166.45904,244.28087c0.38631,-0.88171 1.2667,-1.49768 2.29096,-1.49768c0.04471,0 0.08915,0.00118 0.13328,0.0035c0.06549,-1.18526 0.15404,-2.37855 0.26335,-3.5756c-1.6807,1.214 -2.38574,3.06252 -2.6876,5.06978zM172.86738,252.19231c-0.42032,0.32709 -0.82681,0.46259 -0.82681,0.46259c-0.11126,0.03707 -0.22244,0.07389 -0.33355,0.11047c-0.19384,1.1711 -0.45702,2.35047 -0.45702,3.51782c0,4.97124 0.73027,10.87624 3.21445,15.33974c1.25107,2.24788 2.06337,3.3798 4.18704,4.32846c2.88768,1.28994 5.96983,-2.14896 6.10432,-4.83857c0.28493,-5.69806 -5.66869,-11.96464 -8.3623,-16.65528c-1.41263,-1.00938 -2.40827,-1.68804 -3.52613,-2.26523zM163.28406,255.11311c-2.82999,0.65294 -5.68806,1.18472 -8.65176,1.64067c-3.30289,0.50813 -8.60404,0.49575 -10.91582,3.57309c-1.60341,2.13438 -1.42776,4.11063 -1.46704,6.50954c-0.09176,5.60363 0.88767,11.06512 7.75422,10.95895c6.60984,-1.24945 7.50453,-5.69308 9.35885,-11.2537c1.26315,-3.78787 2.56924,-7.62488 3.92155,-11.42855zM267.2083,263.39398c-0.18651,-0.10314 -0.39457,-0.24275 -0.44614,-0.36444c-0.27566,-0.65054 -0.3451,-1.36928 -0.44081,-2.07303c0.03741,0.75237 0.08729,1.50527 0.14455,2.25856c0.26634,0.03509 0.51499,0.09356 0.7424,0.17891z" fill="#ff0000" stroke="none" stroke-width="0.5"/><path d="M244.72406,348.80841c-0.9638,-2.70206 -2.00041,-5.41338 -3.09856,-7.96729c-1.31521,-8.06521 -4.2851,-15.97052 -6.58483,-23.789c-3.92211,-13.33414 -7.20018,-27.26248 -9.72739,-41.0387c1.20361,-0.14874 2.28808,-0.27576 3.08296,-0.27576c3.37971,-0.47796 6.99238,-0.88247 10.33189,-1.54996c2.08386,-0.41652 4.09487,-1.29327 6.21334,-1.4608c5.72674,-0.45288 10.94554,-1.5009 16.51264,-3.09314c0.18605,-0.05321 0.37175,-0.10958 0.55605,-0.16855c0.1446,1.89564 0.25366,3.79282 0.25533,5.69149c1.38319,8.43554 2.9311,16.92194 5.63074,25.04793c1.59392,4.79774 4.0994,9.06819 6.05698,13.66323c0.33845,0.79445 0.19178,1.74441 0.51348,2.54578c1.38291,3.44493 3.518,6.77681 5.05401,10.15815c1.94765,4.2875 3.50199,8.06195 6.27206,11.97008c0.14527,0.17999 2.85709,3.35651 2.99539,4.09673c0.46888,2.50955 -4.79014,3.76873 -6.23966,2.13308c-2.60641,-2.9411 -3.55866,-7.74808 -5.02331,-11.26457c-4.52334,-10.86019 -7.79591,-22.51031 -13.03426,-33.01691c-2.15569,-5.01921 -4.77518,-10.01916 -7.58721,-14.71018c-1.99335,-3.32529 -2.64248,-5.43274 -6.4765,-6.6403c-1.91944,-0.60455 -4.23515,0.10799 -6.10965,0.44778c-2.1589,0.39134 -6.37116,0.73597 -7.70154,2.69889c-0.99435,1.46713 0.91875,7.81733 1.19792,9.63205c1.34512,8.7439 3.86559,17.17324 5.58591,25.77485c2.40294,6.02206 3.05317,12.74762 4.96286,18.94585c1.52574,4.95204 3.69554,9.88674 6.15092,14.42187c0.33046,0.61036 1.00841,1.11096 1.24969,1.76175c0.30292,0.81705 -1.52455,1.43691 -3.16474,1.8244c0.83943,-2.25922 -1.42751,-3.1654 -1.42751,-3.1654c-2.16478,-0.85788 -4.30621,-1.77663 -6.44702,-2.67336z" data-paper-data="{&quot;noHover&quot;:false,&quot;origItem&quot;:[&quot;Path&quot;,{&quot;applyMatrix&quot;:true,&quot;segments&quot;:[[[251.17848,351.43231],[-2.16478,-0.85788],[0,0]],[[252.60381,354.59744],[0.83943,-2.25922],[1.64019,-0.3875]],[[255.76493,352.77279],[0.30292,0.81705],[-0.24128,-0.65079]],[[254.51038,351.11091],[0.33046,0.61036],[-2.45538,-4.53513]],[[248.34604,336.68628],[1.52574,4.95204],[-1.90969,-6.19823]],[[243.35364,317.71237],[2.40294,6.02206],[-1.72032,-8.60161]],[[237.7794,291.8823],[1.34512,8.7439],[-0.27917,-1.81471]],[[236.58772,282.24518],[-0.99435,1.46713],[1.33037,-1.96293]],[[244.2993,279.54096],[-2.1589,0.39134],[1.87449,-0.33978]],[[250.41733,279.09071],[-1.91944,-0.60455],[3.83402,1.20756]],[[256.90341,285.73003],[-1.99335,-3.32529],[2.81204,4.69102]],[[264.51794,300.44813],[-2.15569,-5.01921],[5.23835,10.5066]],[[277.5597,333.54329],[-4.52334,-10.86019],[1.46464,3.51649]],[[282.51777,344.73223],[-2.60641,-2.9411],[1.44952,1.63565]],[[288.75216,342.6039],[0.46888,2.50955],[-0.1383,-0.74022]],[[285.75601,338.50798],[0.14527,0.17999],[-2.77007,-3.90813]],[[279.47872,326.54464],[1.94765,4.2875],[-1.53601,-3.38133]],[[274.4182,316.40149],[1.38291,3.44493],[-0.3217,-0.80138]],[[273.9035,313.86252],[0.33845,0.79445],[-1.95758,-4.59503]],[[267.86251,300.24153],[1.59392,4.79774],[-2.69964,-8.126]],[[262.25852,275.2062],[1.38319,8.43554],[-0.00167,-1.89867]],[[262.0044,269.51487],[0.1446,1.89564],[-0.1843,0.05897]],[[261.44897,269.68349],[0.18605,-0.05321],[-5.5671,1.59224]],[[244.9562,272.77468],[5.72674,-0.45288],[-2.11846,0.16753]],[[238.74993,274.23269],[2.08386,-0.41652],[-3.33951,0.66749]],[[228.42723,275.7769],[3.37971,-0.47796],[-0.79488,0]],[[225.34634,276.05093],[1.20361,-0.14874],[2.52721,13.77623]],[[235.08944,317.04106],[-3.92211,-13.33414],[2.29973,7.81848]],[[241.64914,340.79706],[-1.31521,-8.06521],[1.09814,2.55391]],[[244.73998,348.76101],[-0.9638,-2.70206],[2.14081,0.89672]]],&quot;closed&quot;:true}]}" fill="#ff0000" stroke="none" stroke-width="0.5"/></g></g></svg>