<svg version="1.1" xmlns="http://www.w3.org/2000/svg" xmlns:xlink="http://www.w3.org/1999/xlink" width="249" height="303" viewBox="0,0,249,303"><g transform="translate(-102.5,-42.5)"><g data-paper-data="{&quot;isPaintingLayer&quot;:true}" fill-rule="nonzero" stroke-linecap="butt" stroke-linejoin="miter" stroke-miterlimit="10" stroke-dasharray="" stroke-dashoffset="0" style="mix-blend-mode: normal"><path d="M102.5,345.5v-303h249v303z" fill="#000000" stroke="none" stroke-width="0"/><text transform="translate(111,215) scale(0.5,0.5)" font-size="40" xml:space="preserve" fill="#ffffff" fill-rule="nonzero" stroke="none" stroke-width="1" stroke-linecap="butt" stroke-linejoin="miter" stroke-miterlimit="10" stroke-dasharray="" stroke-dashoffset="0" font-family="Sans Serif" font-weight="normal" text-anchor="start" style="mix-blend-mode: normal"><tspan x="0" dy="0">"I HAVE UNLEASHED MY </tspan><tspan x="0" dy="46.150000000000006px">            ANGER!!!!!!"</tspan></text><path d="M292.75,122.5c0,34.93201 -28.31799,63.25 -63.25,63.25c-34.93201,0 -63.25,-28.31799 -63.25,-63.25c0,-34.93201 28.31799,-63.25 63.25,-63.25c34.93201,0 63.25,28.31799 63.25,63.25z" fill="#afafaf" stroke="none" stroke-width="0"/><text transform="translate(131.75,301.5) scale(0.5,0.5)" font-size="40" xml:space="preserve" fill="#00ff3a" fill-rule="nonzero" stroke="none" stroke-width="1" stroke-linecap="butt" stroke-linejoin="miter" stroke-miterlimit="10" stroke-dasharray="" stroke-dashoffset="0" font-family="Sans Serif" font-weight="normal" text-anchor="start" style="mix-blend-mode: normal"><tspan x="0" dy="0">Click Green Flag to </tspan><tspan x="0" dy="46.150000000000006px">       Try Again. </tspan></text><path d="M272.75001,128.93872c0,30.82372 -20.31699,55.81128 -45.37926,55.81128c-25.06227,0 -45.37926,-24.98756 -45.37926,-55.81128c0,-30.82372 20.31699,-55.81128 45.37926,-55.81128c25.06227,0 45.37926,24.98756 45.37926,55.81128z" fill="#ff0000" stroke="#000000" stroke-width="3"/><path d="M200.92137,98.51202c0,-0.96024 0.77843,-1.73867 1.73867,-1.73867c0.96024,0 1.73867,0.77843 1.73867,1.73867c0,0.96024 -0.77843,1.73867 -1.73867,1.73867c-0.96024,0 -1.73867,-0.77843 -1.73867,-1.73867z" fill="#000000" stroke="none" stroke-width="0.5"/><path d="M246.82224,98.16428c0,-0.96024 0.77843,-1.73867 1.73867,-1.73867c0.96024,0 1.73867,0.77843 1.73867,1.73867c0,0.96024 -0.77843,1.73867 -1.73867,1.73867c-0.96024,0 -1.73867,-0.77843 -1.73867,-1.73867z" fill="#000000" stroke="none" stroke-width="0.5"/><path d="M258.58723,144.58675c0,1.73867 -1.73867,1.73867 -1.73867,1.73867h-0.46365c-5.42226,0 -10.82672,-0.47281 -16.22758,-0.46364c-8.89362,0 -17.76361,0.69547 -26.65959,0.69547c-4.84224,0 -10.22938,0.45749 -14.92282,-1.01652c-1.26619,-0.39765 -2.39233,-1.15185 -3.61241,-1.67412c0,0 -1.59809,-0.68489 -0.91319,-2.28298c0.6849,-1.59809 2.28298,-0.9132 2.28298,-0.9132c1.13134,0.48541 2.16905,1.19838 3.34226,1.5714c4.29394,1.36524 9.39296,0.83807 13.82318,0.83807c8.89576,0 17.76583,-0.69547 26.65959,-0.69547c5.40451,0.00828 10.80309,0.46364 16.22758,0.46364h0.46365c0,0 1.73867,0 1.73867,1.73867z" fill="#000000" stroke="none" stroke-width="0.5"/><path d="M186.96185,105.19138c0.00359,-0.724 -0.28713,-1.50364 0.02011,-2.15212c0.04473,-0.0944 0.09251,-0.18689 0.143,-0.27769l-0.06021,-0.02257l0.68122,-1.81658c0.23667,-0.67899 0.88255,-1.16619 1.64221,-1.16619c0.14888,0 0.29339,0.01871 0.4313,0.05391c0.76697,-2.7508 2.49439,-4.79451 3.80789,-7.43588c1.32543,-2.66537 2.89402,-4.48118 4.90895,-6.65663c1.72287,-1.86012 2.89633,-4.31035 4.6909,-6.08435c2.57298,-2.54349 6.06873,-3.28512 9.41968,-4.11734c0.40249,-0.40448 0.9373,-0.52332 0.9373,-0.52332c5.09239,-1.12562 10.16305,-2.02041 15.30807,-2.69095c0.2942,-0.22825 0.66366,-0.36414 1.06486,-0.36414h1.93112c0.2979,-0.0336 0.59609,-0.06646 0.89462,-0.09859c0.1683,-0.02945 0.33491,-0.05372 0.49317,-0.05238c0.25551,-0.02678 0.51127,-0.05301 0.76728,-0.07871l0.08661,0.03864v-0.04079h1.85458c0.96024,0 1.73867,0.77843 1.73867,1.73867c0,0.1519 -0.01948,0.29925 -0.05608,0.4397c1.04487,0.24869 2.58821,0.58237 2.86739,0.6449c6.26427,1.40306 10.82689,5.57535 15.22525,9.97257c3.07276,3.07198 6.01671,6.53266 7.97583,10.42023c0.49567,1.00282 0.92236,2.05047 1.29239,3.12944c0.31892,-0.37518 0.79431,-0.61321 1.32531,-0.61321c0.75967,0 1.40555,0.4872 1.64222,1.16619l0.68121,1.81657l-0.06847,0.02568l0.1337,0.18976c0.21486,2.05121 0.2013,3.80188 0.10906,5.74364c0.14274,1.09389 0.02926,2.25342 0.16488,3.35264l-0.04815,0.10803h0.05151v1.85458c0,0.80741 -0.55035,1.48627 -1.29639,1.68191l0.12386,1.11467c0.00886,0.07113 0.01342,0.14358 0.01342,0.2171c0,0.96024 -0.77843,1.73867 -1.73867,1.73867c-0.82743,0 -1.51987,-0.578 -1.69558,-1.35226l-0.45482,-1.81929l0.02961,-0.0074c-0.0184,-0.03536 -0.03644,-0.07093 -0.0541,-0.10675c-0.65705,-1.33282 -0.5152,-3.32466 -0.30623,-5.20178c-0.50091,-3.98416 -1.29134,-8.08279 -3.01497,-11.48307c-3.48836,-7.04109 -10.53783,-13.99063 -17.53389,-17.53516c-0.72238,-0.36599 -1.51956,-0.6764 -2.35439,-0.94998c0.17619,0.10255 0.35279,0.25012 0.52411,0.45571c1.11307,1.33569 -0.22261,2.44876 -0.22261,2.44876l-1.28948,1.06758c-1.01532,1.16466 -1.90196,2.43731 -2.91474,3.60419c-1.93925,2.23431 -4.48117,3.89049 -6.14275,6.34091c-0.6203,0.91479 -2.91331,5.0041 -4.09356,5.15022c-1.20123,0.14872 -3.89864,-3.63964 -4.47103,-4.33481c-3.12377,-3.79391 -5.77476,-7.65691 -10.01443,-10.29843c0,0 -1.47438,-0.92149 -0.5529,-2.39588c0.92149,-1.47438 2.39589,-0.5529 2.39589,-0.5529c4.00616,2.511 6.60976,5.77865 9.48838,9.44337c0.52802,0.67221 2.0813,2.35611 2.84284,3.35113c0.39783,-0.84118 1.01501,-1.57242 1.54492,-2.3408c1.77691,-2.5766 4.33847,-4.2868 6.37567,-6.64115c1.07377,-1.24094 2.03013,-2.58082 3.11265,-3.81413l1.49239,-1.25065c0,0 0.58059,-0.48382 1.29518,-0.43072c-1.99226,-0.60011 -4.14036,-1.02409 -5.96877,-1.51249c-0.55739,-0.14889 -1.19837,0.04753 -1.71909,-0.20086c-0.03221,-0.01537 -0.06434,-0.03089 -0.09638,-0.04655l-0.00605,0.0242l-1.84704,-0.46176c-5.35629,0.65609 -10.61772,1.56676 -15.90211,2.73938c-0.38649,0.38073 -0.88057,0.50425 -0.88057,0.50425c-2.71518,0.67857 -5.91678,1.13427 -8.00152,3.25183c-1.73138,1.75864 -2.89784,4.14013 -4.582,5.97042c-1.81096,1.96809 -3.16502,3.47623 -4.36395,5.86178c-1.34451,2.67521 -3.46388,4.81577 -3.7842,7.86733c-0.30091,1.35919 -0.61617,2.71537 -0.95369,4.06593l-0.45482,1.81929c-0.14314,0.63075 -0.6292,1.13125 -1.25181,1.29512c-0.02816,0.13098 -0.0603,0.26139 -0.09602,0.39121c-0.00001,0.00458 -0.00001,0.00914 -0.00001,0.01367v0.42018l0.21839,0.0273l-0.22896,1.83169c-0.09591,0.86953 -0.83302,1.5459 -1.7281,1.5459c-0.96024,0 -1.73867,-0.77843 -1.73867,-1.73867v-2.0864c0.00122,-0.79557 0.05352,-1.58966 0.11339,-2.38349l-0.09592,-0.61614c0,0 -0.0904,-0.63282 0.22213,-1.18585z" fill="#000000" stroke="none" stroke-width="0.5"/></g></g></svg>